<?xml version="1.0" encoding="utf-8"?>
<!-- Generator: Adobe Illustrator 26.0.1, SVG Export Plug-In . SVG Version: 6.00 Build 0)  -->
<svg version="1.1" id="_x2018_лой_x5F_1" xmlns="http://www.w3.org/2000/svg" xmlns:xlink="http://www.w3.org/1999/xlink"
	 x="0px" y="0px" viewBox="0 0 2800 2000" style="enable-background:new 0 0 2800 2000;" xml:space="preserve">
<g>
	<path style="fill:#AEC3FF;" d="M2209.01,547.95v900.1c0,15.75-11.37,28.52-25.38,28.52H884.98c-14.02,0-25.38-12.77-25.38-28.52
		v-900.1c0-15.76,11.37-28.52,25.38-28.52h1298.65C2197.64,519.43,2209.01,532.19,2209.01,547.95z"/>
	<g>
		<path style="fill:#F99746;" d="M2144.81,496.56v72.99H695.52v-72.99c0-15.06,12.21-27.26,27.26-27.26h1394.77
			C2132.6,469.3,2144.81,481.5,2144.81,496.56z"/>
		<g>
			<path style="fill:#DFEBFD;" d="M739.86,519.43c0-7.01,5.68-12.69,12.69-12.69c7.01,0,12.69,5.68,12.69,12.69
				c0,7.01-5.68,12.69-12.69,12.69C745.54,532.12,739.86,526.44,739.86,519.43z"/>
			<path style="fill:#DFEBFD;" d="M789.87,519.43c0-7.01,5.68-12.69,12.69-12.69c7.01,0,12.69,5.68,12.69,12.69
				c0,7.01-5.68,12.69-12.69,12.69C795.55,532.12,789.87,526.44,789.87,519.43z"/>
			<path style="fill:#DFEBFD;" d="M841.14,519.43c0-7.01,5.68-12.69,12.69-12.69c7.01,0,12.69,5.68,12.69,12.69
				c0,7.01-5.68,12.69-12.69,12.69C846.83,532.12,841.14,526.44,841.14,519.43z"/>
		</g>
	</g>
	<g>
		<path style="fill:#2C3A64;" d="M830.94,1205.06c0,0,1.93-21.06-21.6-21.06c0,0,7.13,1.93,10.82,5.8c0,0-15.01-8.81-31.35,4.73
			c-16.34,13.54-6.19,47.5-11.15,53.95c-4.97,6.45-24.31,7.74-21.95,28.59c2.36,20.85,61.4,46.96,57.6,64.21
			c0,0,23.13-34.01,6.59-49.53c0,0,8.06,7.59,8.88,16.62c0,0,2.19-17.62-9.03-23.26c-9.93-4.99-18.06-23.23-17.2-26.5
			C803.43,1255.36,830.94,1205.06,830.94,1205.06z"/>
		<path style="fill:#FFB27D;" d="M807.77,1306.2c0,0,17.58,72.74,34.84,87.28c10.37,8.74,41.22,28.8,41.22,28.8l-12.83,4.66
			c0,0-42.79-14.45-52.36-25.71c-9.58-11.26-35.8-67.7-35.8-67.7L807.77,1306.2z"/>
		<path style="fill:#2F539B;" d="M642.52,1433.99c0.15,0.28,0.32,0.57,0.48,0.85c3.85,6.69,12.67,23.07,22.4,41.01
			c4.6,8.51,9.41,17.37,13.98,25.7c7.87,14.38,15.03,27.19,19.21,33.96c4.25,6.88,7.38,11.72,8.64,13.65
			c0.01,0.01,0.01,0.01,0.01,0.01c0.38,0.6,0.46,1.3,0.41,2c-0.44,6.07-0.32,12.1,0.28,18.03c5.86,58.34,45.2,89.6,45.2,89.6
			l11.7,1.73c0,0-16.55-61.32-21.43-95.99c-0.82-5.87-1.18-10.64-0.9-13.74c0.86-9.03-0.74-22.29-3.78-37.52
			c-5.4-27.06-15.31-60.26-23.92-86.85c-0.54-1.7-17-61.2-17-61.2c-13.81,12.07-64.16,17.05-64.16,17.05
			S625.11,1403.04,642.52,1433.99z"/>
		<path style="fill:#234375;" d="M789.38,1675.33h-48.82c0,0-1.17-7.44,1.38-13.08c2.44-5.42,5.93-5.59,0.44-14.08
			c3.1,3.19,13.07,4.52,20.13,3.57c0.87,1.4,5.58,10.81,8.46,12.88C774.17,1666.91,788.39,1666.09,789.38,1675.33z"/>
		<path style="fill:#233862;" d="M642.52,1433.99c0.15,0.28,0.32,0.57,0.48,0.85c3.85,6.69,24.66,45.12,34.38,63.05
			c-11.26-46.35-3.43-92.69-3.43-92.69L642.52,1433.99z"/>
		<path style="fill:#2C3A64;" d="M824.28,1202.1c0.32-1.28-27.88,12.75-29.31,14.33c-13.23,14.67-9.46,33.82-1.89,34
			c4.85,0.12,3.91,8.19,3.91,8.19l54.07-22.87C851.07,1235.75,844.56,1197.78,824.28,1202.1z"/>
		<path style="fill:#F99746;" d="M806.11,1295.27c0,0,8.23,16.44,7.2,29.78c0,0-9.92,15.66-35.65,19.63
			C777.66,1344.68,799.78,1295.26,806.11,1295.27z"/>
		<path style="fill:#2F539B;" d="M680.57,1385.91l0.17-9.13c-18.19,2.29-62.72-21.74-62.72-21.74s-19.03,12.66-21.64,48.81
			c-1.27,17.64-9.32,92.26-10.21,114.54c-0.32,8.08-0.43,13.84-0.47,16.14c0,0.01,0,0.02,0,0.02c-0.01,0.7-0.34,1.32-0.77,1.88
			c-3.76,4.78-7.03,9.85-9.86,15.11c-27.76,51.65-13.24,121.82-13.24,121.82l6.45-1.64c0,0,23.47-72.75,38.81-104.22
			c2.6-5.34,4.97-9.49,6.95-11.89c5.77-7.01,11.85-18.9,17.84-33.22C643.22,1495.33,680.57,1385.91,680.57,1385.91z"/>
		<path style="fill:#234375;" d="M600.65,1675.33h-48.82c0,0-1.17-7.44,1.38-13.08c2.44-5.42,6.27-7.88,5.35-14.43
			c3.1,3.19,8.16,6.77,15.22,5.82c0.86,1.4,5.58,8.91,8.47,10.98C585.45,1666.91,599.67,1666.09,600.65,1675.33z"/>
		<path style="fill:#F99746;" d="M774.36,1355.16c-6.56,1.12,1.07,6.33-7.95,7.31c-12.84,1.4-26.09,2.36-33.03,5.13
			c-2.53,1.01-4.23,2.26-4.75,3.85c-3.01,9.05-22.07,24.6-22.07,24.6c-85.01-3.87-90.48-41.76-90.48-41.76
			c55.17-53.58,102.11-82.79,140.9-86.4c9.44-0.88,22.17,0.3,28.14,2.96c13.57,6.04,21,24.42,21,24.42
			S799.28,1350.91,774.36,1355.16z"/>
		<path style="fill:#ED7D2B;" d="M766.41,1362.47c-12.84,1.4-26.09,2.36-33.03,5.13c-2.84-42.4,17.17-74.29,17.17-74.29
			S763.6,1346.43,766.41,1362.47z"/>
		<path style="fill:#FFB27D;" d="M784.38,1274.35c2.43,7.6,10.52,29.26,21.73,20.92c-0.38-1.62,1.98-6.32,4.75-11.09
			c3.55-6.1,7.78-12.34,7.78-12.34l-18.27-16.01l-1.09-0.96c-4.78,8.34-9.48,12.36-13.59,15.43
			C784.44,1271.25,783.91,1272.86,784.38,1274.35z"/>
		<path style="fill:#ED985F;" d="M818.64,1271.86c0,0-4.22,6.22-7.77,12.33c-11.36-7-11.37-21.06-10.49-28.34L818.64,1271.86z"/>
		<path style="fill:#FFB27D;" d="M819.15,1279.88c0,0-27.57-15.34-17.75-32.37c9.82-17.02,12.87-30.47,30.89-21.39
			c18.02,9.08,17.66,17.53,15.77,24.01C846.16,1256.6,826.57,1283.43,819.15,1279.88z"/>
		<path style="fill:#2C3A64;" d="M852.71,1240.19c-1.26-7.56-5.1-8.28-7.78-7.78c-10.18-16.84-26.82-10.27-26.82-10.27
			c-8.89,11.15-21.73,13.05-21.73,13.05s3.2,5.95,16.38,9.64c4.03,1.12,8.6,0.44,13.01-1.04c-9.15,5.1-18.71,7.05-18.71,7.05
			c17.37,1.59,33.9-14.29,35.62-15.99c0.8,2.46,2.21,7.62,1.37,11.38c-1.14,5.12-5.69,14.39-2.91,15.59
			C841.13,1261.84,854.6,1251.53,852.71,1240.19z"/>
		<g>
			
				<rect x="896.97" y="1505.9" transform="matrix(0.8989 0.4382 -0.4382 0.8989 775.347 -287.8894)" style="fill:#2B478B;" width="228.89" height="60.03"/>
			<g>
				<path style="fill:#2B478B;" d="M831.04,1524.02c-18.89-9.21-32.31-26.27-36.82-46.81c-1.83-8.34,3.44-16.58,11.78-18.42
					c8.34-1.83,16.58,3.44,18.42,11.78c2.47,11.26,9.83,20.61,20.17,25.65c18.56,9.05,41.01,1.31,50.06-17.25
					c9.05-18.56,1.31-41.01-17.25-50.06c-8.43-4.11-18.02-4.91-27-2.26c-8.19,2.42-16.79-2.26-19.2-10.45
					c-2.42-8.19,2.26-16.79,10.45-19.21c16.41-4.85,33.92-3.38,49.3,4.12c33.88,16.52,48.01,57.52,31.49,91.4
					C905.92,1526.42,864.92,1540.54,831.04,1524.02z"/>
			</g>
			<g>
				<path style="fill:#2B478B;" d="M1122.09,1665.92c-33.88-16.52-48.01-57.52-31.49-91.4c16.52-33.88,57.52-48.01,91.4-31.49
					c15.39,7.5,27.32,20.4,33.61,36.31c3.14,7.94-0.76,16.92-8.7,20.06c-7.94,3.14-16.92-0.75-20.06-8.69
					c-3.44-8.71-9.98-15.77-18.41-19.88c-18.56-9.05-41.01-1.31-50.06,17.25c-9.05,18.56-1.31,41.01,17.25,50.06
					c10.34,5.04,22.24,5.08,32.63,0.09c7.7-3.69,16.93-0.45,20.62,7.25c3.69,7.7,0.45,16.93-7.25,20.62
					C1162.68,1675.19,1140.98,1675.13,1122.09,1665.92z"/>
			</g>
			<path style="fill:#233862;" d="M1053.39,1565.22L945,1512.38c-3.11-1.52-4.41-5.3-2.9-8.41l2.76-5.65
				c1.52-3.11,5.3-4.41,8.41-2.9l108.39,52.84c3.11,1.52,4.41,5.3,2.9,8.41l-2.75,5.65
				C1060.28,1565.43,1056.5,1566.74,1053.39,1565.22z"/>
		</g>
		<path style="fill:#FFB27D;" d="M803.36,1469.21c0,0,0.6,5.14,2.77,7.79c2.17,2.65,8.49,9.07,8.6,12.83c0,0-0.32,1.67-1.67,1.36
			c-1.35-0.3-6.06-4.96-8.47-4.63c0,0,1.29,7.53,2.57,9.65c1.28,2.12,3.63,10.11,2.86,11.94c-0.77,1.83-13.55-8.82-17.42-14.03
			c-3.87-5.21-0.06-26.33-0.06-26.33L803.36,1469.21z"/>
		<path style="fill:#FFB27D;" d="M777.49,1286.14c0,0-32.28-1.76-38.02,18.5c-5.74,20.27,10.76,101.16,14.32,109.51
			c6.47,15.2,37.98,58.58,37.98,58.58l11.59-3.53c0,0-21.01-66.28-25.7-72.84C770.29,1386.08,787.15,1294.96,777.49,1286.14z"/>
		<path style="fill:#F99746;" d="M733.1,1331.75c0.08,0.47,30.55,5.6,49.6-4.07c0,0,15.92-49.87-6.83-47.48
			c-22.75,2.39-36.22,9.55-36.79,20.44C738.51,1311.53,733.1,1331.75,733.1,1331.75z"/>
		<path style="fill:#FFB27D;" d="M867.98,1389.85c-1.53,0.07-4.34,0.57-5.35,1.35c-1.76,1.36-3.74,3.72,0.2,5.68
			c5.92,2.95,17.75,1.64,17.29-0.14C878.66,1391.15,876.53,1389.45,867.98,1389.85z"/>
	</g>
	<g>
		<path style="fill:#FFB27D;" d="M1038.06,596.01c-1.56,1.78-1.75,3.78-0.98,5.91c0,0.01,0.01,0.02,0.02,0.03
			c1.42,3.94,6.13,8.33,11.6,12.72c0.7,0.56,1.32,1.08,1.86,1.55c0.14,0.12,0.28,0.25,0.42,0.38c0.11,0.1,0.22,0.2,0.32,0.29
			c5.1,4.7,3.18,5.78,12.34,15.31c10.44,10.87,17.63,11.06,19.68,10.07c1.73-0.84-1.79-6.61-5.68-13.08
			c-0.19-0.31-0.37-0.63-0.57-0.94c-0.52-0.86-1.03-1.74-1.55-2.6c-4.57-7.8-3.39-11.45-2.31-23.06
			c0.88-9.43,14.67-52.67,14.67-52.67l-20.01-3.45c0,0-6.03,34.43-12.67,39.74c-3.55,2.83-7.53,2.86-10.94,4.96
			c-0.24,0.15-0.48,0.29-0.71,0.45C1041.6,592.89,1039.62,594.22,1038.06,596.01z"/>
		<path style="fill:#233862;" d="M1038.06,596.01c-1.56,1.78-1.75,3.78-0.98,5.91c0,0.01,0.01,0.02,0.02,0.03
			c1.74,3.93,6.33,8.31,11.62,12.68c0.69,0.57,1.3,1.1,1.84,1.59c0.14,0.12,0.28,0.25,0.42,0.38c0.11,0.1,0.22,0.2,0.32,0.29
			c5.1,4.7,3.18,5.78,12.34,15.31c10.44,10.87,17.63,11.06,19.68,10.07c1.73-0.84-1.79-6.61-5.68-13.08
			c-2.03-0.74-11.48-4.58-18.62-13.72c-6.29-8.02-10.48-18.34-14.76-24.31c-0.24,0.15-0.48,0.29-0.71,0.45
			C1041.6,592.89,1039.62,594.22,1038.06,596.01z"/>
		<path style="fill:#FFB27D;" d="M1199.44,583.51c1.24,6.18,10.04,5.15,19.88,2.74c9.84-2.4,7.5,0.45,21.5-1.1
			c14-1.55,18.24-6.77,18.67-8.85c0.38-1.85-6.54-2.5-13.96-3.35c-0.93-0.1-1.87-0.22-2.81-0.34c-8.38-1.05-14.51-6.46-22.12-10.9
			c-7.21-4.21-17.97-21.34-17.97-21.34l-19.2,1.52c0,0,10.08,15.3,13.97,21.96c2.29,3.91,2.17,9.09,1.88,13.09
			C1199.14,579.11,1199,581.33,1199.44,583.51z"/>
		<path style="fill:#233862;" d="M1219.32,586.25c9.84-2.4,7.5,0.45,21.5-1.1c14-1.55,18.24-6.77,18.67-8.85
			c0.38-1.85-6.54-2.5-13.96-3.35l-0.07,0.14c0,0-8.4,5.95-20.05,6.23c-9.5,0.23-19.56-2.49-26.12-2.38
			c-0.15,2.17-0.29,4.39,0.15,6.57C1200.67,589.69,1209.48,588.66,1219.32,586.25z"/>
		<path style="fill:#2C3A64;" d="M1125.85,460.73l-17.95,48.3l-23.44,63.07c0,0-6.36,0.61-12.45-1.14
			c-5.61-1.62-12.04-5.86-12.04-5.86s6.51-67.72,18.65-106.59c3.11-9.98,6.6-18.05,10.44-22.59
			C1107.88,413.68,1125.85,460.73,1125.85,460.73z"/>
		<path style="fill:#2F539B;" d="M1107.6,384.02c-11.76-3.79-45.3,1.08-78.99,7.67l-7.05-11.64l-72.78-5.68
			c0,0-24.01,53.26-10.87,87.19c1.93,4.99,5.77,8.19,12.32,8.29c0,0,1.06,0,1.06,0c0,0,43.31-0.03,57.38-0.03
			c36.19,0,76.6-24.88,81.82-25.92c8.56-1.71,11.98,15.4,20.53,33.36c8.55,17.97,80.42,79.56,80.42,79.56s11.04,0.11,15.61-1.6
			c4.91-1.84,6.7-4.23,6.7-4.23S1134.12,392.57,1107.6,384.02z"/>
		<path style="fill:#2B478B;" d="M997.44,158.5c-10.2-2.62-24.16-0.01-26.47,0.22c-27.69,2.73-37,33.62-32.8,57.58
			c3.87,22.12-7.35,28.24-20.35,45.71c-26.07,35.03-9.03,64.56,11.54,72.18c12.34,4.57,29.48-6.96,29.48-6.96
			c0.31,0.12,53.84-35.07,75.79-54.91C1071.16,258.02,1023.42,165.19,997.44,158.5z"/>
		<path style="fill:#FFB27D;" d="M1001.53,259.81c0.73,2.56-11.38,7.27-20.63,5.54c-8.7-1.62-18.45-11.81-16.44-12.76
			c3.33-1.58,5.57-5.52,3.75-26.78l1.66,0.19l27.83,3.18c0,0,0.08,8.67,0.73,16.79C998.96,252.78,1000.34,255.63,1001.53,259.81z"/>
		<path style="fill:#ED975D;" d="M997.69,229.17c0,0,0.08,8.67,0.73,16.79c-15.36,0.82-24.61-12.49-28.56-19.97L997.69,229.17z"/>
		<path style="fill:#FFB27D;" d="M1003.44,236.44c0,0-36.21,3.57-38.09-19.01c-1.88-22.58-7.81-37.33,15.23-40.57
			c23.04-3.23,28.25,5.01,30.71,12.39C1013.75,196.64,1012.81,234.93,1003.44,236.44z"/>
		<path style="fill:#2B478B;" d="M999.56,173.3c0,0-4.56,27.59-25.18,34.14c-15.04,4.78-21.86,1.63-21.86,1.63s7.24-9.61,9.82-22.95
			c0.76-3.93,3.56-7.17,7.36-8.42C980.39,174.16,993.34,164.55,999.56,173.3z"/>
		<path style="fill:#2B478B;" d="M992.74,179.18c0,0,6.82,1.52,12.87,10.33c3.3,4.81,7.13,16.94,6.48,22.31
			c0,0,6.34-25.53-2.9-35.03C999.39,166.71,992.74,179.18,992.74,179.18z"/>
		<path style="fill:#F99746;" d="M936.33,334c0.64,2.74,1.2,5.27,1.65,7.59c0.74,3.76,1.24,6.99,1.6,9.85
			c1.11,8.91,0.77,14.18,1.52,19.96c0.41,3.23,1.18,6.61,2.71,10.86c1.5,4.14,40.85,7.82,63.23,6.34
			c7.11-0.46,12.52-1.46,14.45-3.12c7.99-6.94,7.19,8.32,8.28-64.67c0.53-35.6-30.21-67.31-30.21-67.31s-2.45,15.21-32.94-2.89
			c-1.08-0.63-13.09,17.15-24.65,39.04C929.24,313.83,932.73,318.94,936.33,334z"/>
		<path style="fill:#2B478B;" d="M1107.9,509.03l-23.44,63.07c0,0-6.36,0.61-12.45-1.14c-5.61-1.62-12.04-5.86-12.04-5.86
			s6.51-67.72,18.65-106.59L1107.9,509.03z"/>
		<path style="fill:#F99746;" d="M999.56,253.49c0,0,31.37,5.32,35.05,18.82c3.68,13.51,29.13,89.04,29.13,89.04
			s-19.72,6.73-27.09-0.64c-7.37-7.37-25.63-68.35-25.63-68.35L999.56,253.49z"/>
		<path style="fill:#FFFFFF;" d="M995.08,223.12c0,0,1.52,3.71,5.53,3.71c4.01,0,5.09-0.6,5.85-1.45c0.76-0.85,1.51-2.48,1.51-2.48
			S1001.33,221.59,995.08,223.12z"/>
		<path style="fill:#ED7D2B;" d="M939.57,351.44c1.11,8.91,0.77,14.18,1.52,19.96c28.48,0.09,66.56-22,66.56-22L939.57,351.44z"/>
		<path style="fill:#ED7D2B;" d="M1007.66,330.73c0,0-44.37-1.32-51.85-26.54c-8.22-27.71-17.42,11.39-17.42,11.39l4.9,24.96h48.68
			L1007.66,330.73z"/>
		<g>
			<path style="fill:#739AF0;" d="M1085.01,262.29l-2.4-5.94c-2.57-6.37-8.75-10.54-15.62-10.54h-44.23v28.07v119.83h182.98V273.88
				H1102.2C1094.64,273.88,1087.84,269.3,1085.01,262.29z"/>
			<g>
				<path style="fill:#FFFFFF;" d="M1050.36,335.75v-10.66l37.39-16.38v10.89l-26.11,10.74l26.11,10.74v11.05L1050.36,335.75z"/>
				<path style="fill:#FFFFFF;" d="M1126.61,295.97h9.97l-34.22,71.54h-9.97L1126.61,295.97z"/>
				<path style="fill:#FFFFFF;" d="M1178.14,325.09v10.66l-37.39,16.38v-10.89l26.11-10.74l-26.11-10.74v-11.05L1178.14,325.09z"/>
			</g>
		</g>
		<path style="fill:#FFB27D;" d="M1007.65,336.57l3.21-5.04c0,0,2.54-0.83,6.1-3.33c4.24-2.98,3.68-7.43,5.8-6.96l0.03,9.8
			l-0.23,0.03c9.09,2.43,19.73-0.21,19.94,2.05c0.59,6.23-4.23,9.03-8.27,10.98c-3.09,1.49-6.6,3.73-12.18,2
			c-4.08-1.27-10.5-2.56-10.5-2.56L1007.65,336.57z"/>
		<path style="fill:#F99746;" d="M966.61,250.61c0,0-28.8,1.88-36,13.12c-7.2,11.23-16.13,68.27-12.39,87.86
			c3.74,19.59,95.98-3.74,95.98-3.74l-2.94-17c0,0-53.23,0.31-56.27-6.62C950.97,315,966.61,250.61,966.61,250.61z"/>
		<path style="fill:#FFB27D;" d="M1105.65,273.82c-0.25,0.75,4.33,8.29,10.87,6.98c4.08-0.82,9.38-9.6,4.72-11.53
			C1113.47,266.04,1106.31,271.83,1105.65,273.82z"/>
	</g>
	<g>
		<g>
			
				<rect x="1326.67" y="568.96" transform="matrix(0.4709 -0.8822 0.8822 0.4709 259.6219 1571.8988)" style="fill:#2A4E96;" width="227.16" height="1.1"/>
		</g>
		<g>
			
				<rect x="1824.73" y="445.72" transform="matrix(0.7334 -0.6798 0.6798 0.7334 123.4766 1383.1926)" style="fill:#2A4E96;" width="1.1" height="176.89"/>
		</g>
		<g>
			<path style="fill:#EBF3FA;" d="M1960.14,636.9c1.79,12.99-1.78,25.52-8.97,35.24c-7.19,9.72-17.99,16.61-30.68,18.36
				l-537.63,73.87c-27.44,3.77-52.81-14.41-56.38-40.4c-1.79-12.99,2.2-25.58,10.07-35.38c7.86-9.81,19.61-16.83,33.33-18.72
				L1907.5,596C1932.88,592.51,1956.57,610.92,1960.14,636.9z"/>
			<path style="fill:#F99746;" d="M1960.14,636.9c1.79,12.99-1.78,25.52-8.97,35.24c-7.19,9.72-17.99,16.61-30.68,18.36
				l-97.29,13.37l-12.98-94.5L1907.5,596C1932.88,592.51,1956.57,610.92,1960.14,636.9z"/>
			<g>
				<g>
					<path style="fill:#FFFFFF;" d="M1900.92,662.54c-1.2,0.16-2.41,0.24-3.64,0.23c-6.49-0.08-12.57-2.67-17.1-7.32
						c-9.37-9.59-9.19-25.01,0.4-34.37l0,0c9.59-9.37,25.01-9.19,34.37,0.4c9.37,9.59,9.19,25.01-0.4,34.37
						C1910.78,659.53,1906.04,661.84,1900.92,662.54z M1883.37,623.94c-8.01,7.82-8.16,20.7-0.33,28.71
						c3.79,3.88,8.86,6.05,14.29,6.11c5.42,0.06,10.54-1.99,14.42-5.78c8.01-7.82,8.16-20.7,0.33-28.71
						C1904.26,616.26,1891.38,616.12,1883.37,623.94L1883.37,623.94z"/>
				</g>
				
					<rect x="1867.74" y="649.06" transform="matrix(0.6989 0.7152 -0.7152 0.6989 1039.0811 -1136.8633)" style="fill:#FFFFFF;" width="4" height="33.17"/>
				<path style="fill:#FFFFFF;" d="M1849.64,685.29L1849.64,685.29c-1.38-1.41-1.35-3.68,0.06-5.06l13.97-13.65
					c1.41-1.38,3.67-1.35,5.05,0.06l0,0c1.38,1.41,1.35,3.68-0.06,5.05l-13.97,13.65C1853.28,686.73,1851.02,686.7,1849.64,685.29z"
					/>
			</g>
		</g>
	</g>
	<g>
		<path style="fill:#F99746;" d="M1057.3,1150.37H944.97c-2.34,0-4.23-1.9-4.23-4.23v-1.78c0-2.34,1.9-4.23,4.23-4.23h112.32
			c2.34,0,4.23,1.9,4.23,4.23v1.78C1061.53,1148.47,1059.63,1150.37,1057.3,1150.37z"/>
		<g>
			<path style="fill:#739AF0;" d="M999.66,1185.6h-55.42c-1.93,0-3.5-1.57-3.5-3.5l0,0c0-1.93,1.57-3.5,3.5-3.5h55.42
				c1.93,0,3.5,1.57,3.5,3.5l0,0C1003.15,1184.04,1001.59,1185.6,999.66,1185.6z"/>
			<g>
				<path style="fill:#739AF0;" d="M1042.09,1170.94h-98.1c-1.8,0-3.25-1.46-3.25-3.25v-0.48c0-1.8,1.46-3.25,3.25-3.25h98.1
					c1.8,0,3.25,1.46,3.25,3.25v0.48C1045.35,1169.48,1043.89,1170.94,1042.09,1170.94z"/>
				<path style="fill:#739AF0;" d="M1149.42,1170.94h-91.4c-1.74,0-3.14-1.41-3.14-3.14v-0.7c0-1.74,1.41-3.14,3.14-3.14h91.4
					c1.74,0,3.15,1.41,3.15,3.14v0.7C1152.57,1169.53,1151.16,1170.94,1149.42,1170.94z"/>
				<path style="fill:#739AF0;" d="M1068.78,1185.6h-55.42c-1.93,0-3.5-1.57-3.5-3.5l0,0c0-1.93,1.57-3.5,3.5-3.5h55.42
					c1.93,0,3.5,1.57,3.5,3.5l0,0C1072.28,1184.04,1070.71,1185.6,1068.78,1185.6z"/>
			</g>
		</g>
		<path style="fill:#F99746;" d="M1194.07,1150.37h-112.33c-2.34,0-4.23-1.9-4.23-4.23v-1.78c0-2.34,1.89-4.23,4.23-4.23h112.33
			c2.34,0,4.23,1.9,4.23,4.23v1.78C1198.31,1148.47,1196.41,1150.37,1194.07,1150.37z"/>
	</g>
	<g>
		<path style="fill:#F99746;" d="M1057.3,1227.53H944.97c-2.34,0-4.23-1.89-4.23-4.23v-1.78c0-2.34,1.9-4.23,4.23-4.23h112.32
			c2.34,0,4.23,1.9,4.23,4.23v1.78C1061.53,1225.63,1059.63,1227.53,1057.3,1227.53z"/>
		<g>
			<path style="fill:#739AF0;" d="M999.66,1262.77h-55.42c-1.93,0-3.5-1.57-3.5-3.5l0,0c0-1.93,1.57-3.5,3.5-3.5h55.42
				c1.93,0,3.5,1.57,3.5,3.5l0,0C1003.15,1261.2,1001.59,1262.77,999.66,1262.77z"/>
			<g>
				<path style="fill:#739AF0;" d="M1042.09,1248.1h-98.1c-1.8,0-3.25-1.46-3.25-3.26v-0.49c0-1.8,1.46-3.25,3.25-3.25h98.1
					c1.8,0,3.25,1.46,3.25,3.25v0.49C1045.35,1246.64,1043.89,1248.1,1042.09,1248.1z"/>
				<path style="fill:#739AF0;" d="M1149.42,1248.1h-91.4c-1.74,0-3.14-1.41-3.14-3.15v-0.7c0-1.74,1.41-3.14,3.14-3.14h91.4
					c1.74,0,3.15,1.41,3.15,3.14v0.7C1152.57,1246.69,1151.16,1248.1,1149.42,1248.1z"/>
				<path style="fill:#739AF0;" d="M1068.78,1262.77h-55.42c-1.93,0-3.5-1.57-3.5-3.5l0,0c0-1.93,1.57-3.5,3.5-3.5h55.42
					c1.93,0,3.5,1.57,3.5,3.5l0,0C1072.28,1261.2,1070.71,1262.77,1068.78,1262.77z"/>
			</g>
		</g>
		<path style="fill:#F99746;" d="M1194.07,1227.53h-112.33c-2.34,0-4.23-1.89-4.23-4.23v-1.78c0-2.34,1.89-4.23,4.23-4.23h112.33
			c2.34,0,4.23,1.9,4.23,4.23v1.78C1198.31,1225.63,1196.41,1227.53,1194.07,1227.53z"/>
	</g>
	<g>
		<polygon style="fill:#233862;" points="1641.13,758.55 1576.98,773.48 1545.26,831.2 1521.04,699.65 		"/>
		
			<rect x="1583.43" y="757.46" transform="matrix(0.797 -0.604 0.604 0.797 -155.3611 1120.505)" style="fill:#233862;" width="11.73" height="67.85"/>
	</g>
	<g>
		<path style="fill:#D4E1FF;" d="M1599.14,1030.46h-157.74c-6.38,0-11.56-5.18-11.56-11.56V861.16c0-6.38,5.18-11.56,11.56-11.56
			h157.74c6.38,0,11.56,5.18,11.56,11.56v157.74C1610.7,1025.29,1605.52,1030.46,1599.14,1030.46z"/>
		<g>
			<path style="fill:#739AF0;" d="M1452.94,992.63l35.14-63.36c4.09-7.38,14.45-8.03,19.43-1.23l20.27,27.65
				c4.31,5.88,12.93,6.35,17.85,0.97l0,0c5.11-5.58,14.12-4.83,18.23,1.52l21.88,33.77c4.98,7.69-0.54,17.84-9.7,17.84h-112.99
				C1454.24,1009.8,1448.67,1000.34,1452.94,992.63z"/>
			<path style="fill:#739AF0;" d="M1522.3,899.66c0-7.64,6.19-13.83,13.82-13.83c7.64,0,13.83,6.19,13.83,13.83
				c0,7.63-6.19,13.82-13.83,13.82C1528.49,913.49,1522.3,907.3,1522.3,899.66z"/>
		</g>
	</g>
	<g>
		<path style="fill:#D4E1FF;" d="M1830.52,1035.34l-156.3,21.32c-6.33,0.86-12.15-3.57-13.02-9.89l-21.32-156.29
			c-0.86-6.33,3.57-12.15,9.89-13.02l156.3-21.32c6.33-0.86,12.15,3.57,13.02,9.89l21.32,156.3
			C1841.27,1028.65,1836.84,1034.47,1830.52,1035.34z"/>
		<g>
			<path style="fill:#739AF0;" d="M1680.55,1017.61l26.26-67.53c3.06-7.86,13.23-9.91,19.09-3.84l23.82,24.66
				c5.07,5.25,13.67,4.54,17.82-1.45l0,0c4.31-6.22,13.33-6.7,18.27-0.96l26.24,30.51c5.98,6.95,1.88,17.75-7.2,18.99l-111.96,15.27
				C1684.15,1034.45,1677.36,1025.82,1680.55,1017.61z"/>
			<path style="fill:#739AF0;" d="M1736.7,916.12c-1.03-7.57,4.26-14.54,11.83-15.57c7.57-1.03,14.54,4.26,15.57,11.83
				c1.03,7.57-4.26,14.53-11.83,15.57C1744.7,928.98,1737.74,923.68,1736.7,916.12z"/>
		</g>
	</g>
	<g>
		<rect x="1279.8" y="1594.07" style="fill:#F99746;" width="91.15" height="78.15"/>
		<rect x="1276.13" y="1590.73" style="fill:#AEC3FF;" width="97.91" height="6.04"/>
		<rect x="1279.8" y="1615.22" style="fill:#F9DDBF;" width="91.15" height="24.82"/>
	</g>
	<path style="fill:#F99746;" d="M1481.85,1672.28h-86.07c-3.15,0-5.71-2.55-5.71-5.7v-9.55c0-3.4,2.95-6.05,6.33-5.67l86.07,9.55
		c2.89,0.32,5.08,2.76,5.08,5.67l0,0C1487.55,1669.73,1485,1672.28,1481.85,1672.28z"/>
	<g>
		<path style="fill:#739AF0;" d="M1331.51,1037.57h-9.92c-0.9,0-1.63-0.73-1.63-1.63c0-0.9,0.73-1.63,1.63-1.63h9.85
			c0.9,0,1.66,0.73,1.66,1.63C1333.1,1036.84,1332.41,1037.57,1331.51,1037.57z M1311.74,1037.57h-9.85c-0.9,0-1.63-0.73-1.63-1.63
			c0-0.9,0.73-1.63,1.63-1.63h9.85c0.9,0,1.63,0.73,1.63,1.63C1313.37,1036.84,1312.64,1037.57,1311.74,1037.57z M1292.03,1037.57
			h-9.85c-0.9,0-1.63-0.73-1.63-1.63c0-0.9,0.73-1.63,1.63-1.63h9.85c0.9,0,1.63,0.73,1.63,1.63
			C1293.66,1036.84,1292.93,1037.57,1292.03,1037.57z M1272.33,1037.57h-9.85c-0.9,0-1.63-0.73-1.63-1.63c0-0.9,0.73-1.63,1.63-1.63
			h9.85c0.9,0,1.63,0.73,1.63,1.63C1273.96,1036.84,1273.23,1037.57,1272.33,1037.57z M1252.63,1037.57h-9.85
			c-0.9,0-1.63-0.73-1.63-1.63c0-0.9,0.73-1.63,1.63-1.63h9.85c0.9,0,1.63,0.73,1.63,1.63
			C1254.26,1036.84,1253.53,1037.57,1252.63,1037.57z M1232.93,1037.57h-9.85c-0.9,0-1.63-0.73-1.63-1.63c0-0.9,0.73-1.63,1.63-1.63
			h9.85c0.9,0,1.63,0.73,1.63,1.63C1234.56,1036.84,1233.83,1037.57,1232.93,1037.57z M1213.22,1037.57h-9.85
			c-0.9,0-1.63-0.73-1.63-1.63c0-0.9,0.73-1.63,1.63-1.63h9.85c0.9,0,1.63,0.73,1.63,1.63
			C1214.86,1036.84,1214.12,1037.57,1213.22,1037.57z M1193.52,1037.57h-9.85c-0.9,0-1.63-0.73-1.63-1.63c0-0.9,0.73-1.63,1.63-1.63
			h9.85c0.9,0,1.63,0.73,1.63,1.63C1195.15,1036.84,1194.42,1037.57,1193.52,1037.57z M1173.82,1037.57h-9.85
			c-0.9,0-1.63-0.73-1.63-1.63c0-0.9,0.73-1.63,1.63-1.63h9.85c0.9,0,1.63,0.73,1.63,1.63
			C1175.45,1036.84,1174.72,1037.57,1173.82,1037.57z M1154.12,1037.57h-9.85c-0.9,0-1.63-0.73-1.63-1.63c0-0.9,0.73-1.63,1.63-1.63
			h9.85c0.9,0,1.63,0.73,1.63,1.63C1155.75,1036.84,1155.02,1037.57,1154.12,1037.57z M1134.42,1037.57h-9.85
			c-0.9,0-1.63-0.73-1.63-1.63c0-0.9,0.73-1.63,1.63-1.63h9.85c0.9,0,1.63,0.73,1.63,1.63
			C1136.05,1036.84,1135.32,1037.57,1134.42,1037.57z M1114.71,1037.57h-9.85c-0.9,0-1.63-0.73-1.63-1.63c0-0.9,0.73-1.63,1.63-1.63
			h9.85c0.9,0,1.63,0.73,1.63,1.63C1116.34,1036.84,1115.61,1037.57,1114.71,1037.57z M1095.01,1037.57h-9.85
			c-0.9,0-1.63-0.73-1.63-1.63c0-0.9,0.73-1.63,1.63-1.63h9.85c0.9,0,1.63,0.73,1.63,1.63
			C1096.64,1036.84,1095.91,1037.57,1095.01,1037.57z M1075.31,1037.57h-9.85c-0.9,0-1.63-0.73-1.63-1.63c0-0.9,0.73-1.63,1.63-1.63
			h9.85c0.9,0,1.63,0.73,1.63,1.63C1076.94,1036.84,1076.21,1037.57,1075.31,1037.57z M1055.61,1037.57h-9.85
			c-0.9,0-1.63-0.73-1.63-1.63c0-0.9,0.73-1.63,1.63-1.63h9.85c0.9,0,1.63,0.73,1.63,1.63
			C1057.24,1036.84,1056.51,1037.57,1055.61,1037.57z M1035.9,1037.57h-9.85c-0.9,0-1.63-0.73-1.63-1.63c0-0.9,0.73-1.63,1.63-1.63
			h9.85c0.9,0,1.63,0.73,1.63,1.63C1037.53,1036.84,1036.8,1037.57,1035.9,1037.57z M1016.2,1037.57h-9.85
			c-0.9,0-1.63-0.73-1.63-1.63c0-0.9,0.73-1.63,1.63-1.63h9.85c0.9,0,1.63,0.73,1.63,1.63
			C1017.83,1036.84,1017.1,1037.57,1016.2,1037.57z M996.5,1037.57h-8.78c-0.39,0-0.78-0.01-1.17-0.04
			c-0.9-0.06-1.58-0.83-1.52-1.73c0.06-0.9,0.83-1.6,1.73-1.52c0.32,0.02,0.64,0.03,0.97,0.03h8.78c0.9,0,1.63,0.73,1.63,1.63
			C998.13,1036.84,997.4,1037.57,996.5,1037.57z M1340.78,1034.7c-0.52,0-1.03-0.25-1.35-0.71c-0.51-0.75-0.31-1.76,0.43-2.27
			c2.48-1.69,4.38-4.04,5.5-6.81c0.34-0.84,1.29-1.24,2.12-0.9c0.84,0.34,1.24,1.29,0.9,2.12c-1.36,3.37-3.67,6.24-6.69,8.29
			C1341.41,1034.61,1341.09,1034.7,1340.78,1034.7z M977.57,1034.12c-0.35,0-0.7-0.11-0.99-0.34c-2.89-2.23-5.03-5.23-6.18-8.68
			c-0.29-0.85,0.18-1.78,1.03-2.06c0.85-0.28,1.78,0.18,2.06,1.03c0.95,2.83,2.7,5.3,5.08,7.13c0.71,0.55,0.85,1.57,0.3,2.29
			C978.54,1033.9,978.06,1034.12,977.57,1034.12z M1348.07,1017.46c-0.9,0-1.63-0.73-1.63-1.63v-9.85c0-0.9,0.73-1.63,1.63-1.63
			c0.9,0,1.63,0.73,1.63,1.63v9.85C1349.71,1016.72,1348.97,1017.46,1348.07,1017.46z M971.08,1016.45c-0.9,0-1.63-0.73-1.63-1.63
			v-9.85c0-0.9,0.73-1.63,1.63-1.63c0.9,0,1.63,0.73,1.63,1.63v9.85C972.71,1015.72,971.98,1016.45,971.08,1016.45z M1348.07,997.75
			c-0.9,0-1.63-0.73-1.63-1.63v-9.85c0-0.9,0.73-1.63,1.63-1.63c0.9,0,1.63,0.73,1.63,1.63v9.85
			C1349.71,997.02,1348.97,997.75,1348.07,997.75z M971.08,996.75c-0.9,0-1.63-0.73-1.63-1.63v-9.85c0-0.9,0.73-1.63,1.63-1.63
			c0.9,0,1.63,0.73,1.63,1.63v9.85C972.71,996.02,971.98,996.75,971.08,996.75z M1348.07,978.05c-0.9,0-1.63-0.73-1.63-1.63v-9.85
			c0-0.9,0.73-1.63,1.63-1.63c0.9,0,1.63,0.73,1.63,1.63v9.85C1349.71,977.32,1348.97,978.05,1348.07,978.05z M971.08,977.05
			c-0.9,0-1.63-0.73-1.63-1.63v-9.85c0-0.9,0.73-1.63,1.63-1.63c0.9,0,1.63,0.73,1.63,1.63v9.85
			C972.71,976.32,971.98,977.05,971.08,977.05z M1348.07,958.35c-0.9,0-1.63-0.73-1.63-1.63v-9.85c0-0.9,0.73-1.63,1.63-1.63
			c0.9,0,1.63,0.73,1.63,1.63v9.85C1349.71,957.62,1348.97,958.35,1348.07,958.35z M971.08,957.35c-0.9,0-1.63-0.73-1.63-1.63v-9.85
			c0-0.9,0.73-1.63,1.63-1.63c0.9,0,1.63,0.73,1.63,1.63v9.85C972.71,956.62,971.98,957.35,971.08,957.35z M1348.07,938.65
			c-0.9,0-1.63-0.73-1.63-1.63v-9.85c0-0.9,0.73-1.63,1.63-1.63c0.9,0,1.63,0.73,1.63,1.63v9.85
			C1349.71,937.92,1348.97,938.65,1348.07,938.65z M971.08,937.64c-0.9,0-1.63-0.73-1.63-1.63v-9.85c0-0.9,0.73-1.63,1.63-1.63
			c0.9,0,1.63,0.73,1.63,1.63v9.85C972.71,936.91,971.98,937.64,971.08,937.64z M1348.07,918.94c-0.9,0-1.63-0.73-1.63-1.63v-9.85
			c0-0.9,0.73-1.63,1.63-1.63c0.9,0,1.63,0.73,1.63,1.63v9.85C1349.71,918.21,1348.97,918.94,1348.07,918.94z M971.08,917.94
			c-0.9,0-1.63-0.73-1.63-1.63v-9.85c0-0.9,0.73-1.63,1.63-1.63c0.9,0,1.63,0.73,1.63,1.63v9.85
			C972.71,917.21,971.98,917.94,971.08,917.94z M1348.07,899.24c-0.9,0-1.63-0.73-1.63-1.63v-9.85c0-0.9,0.73-1.63,1.63-1.63
			c0.9,0,1.63,0.73,1.63,1.63v9.85C1349.71,898.51,1348.97,899.24,1348.07,899.24z M971.08,898.24c-0.9,0-1.63-0.73-1.63-1.63v-9.85
			c0-0.9,0.73-1.63,1.63-1.63c0.9,0,1.63,0.73,1.63,1.63v9.85C972.71,897.51,971.98,898.24,971.08,898.24z M1348.07,879.54
			c-0.9,0-1.63-0.73-1.63-1.63v-9.85c0-0.9,0.73-1.63,1.63-1.63c0.9,0,1.63,0.73,1.63,1.63v9.85
			C1349.71,878.81,1348.97,879.54,1348.07,879.54z M971.08,878.54c-0.9,0-1.63-0.73-1.63-1.63v-9.85c0-0.9,0.73-1.63,1.63-1.63
			c0.9,0,1.63,0.73,1.63,1.63v9.85C972.71,877.81,971.98,878.54,971.08,878.54z M1348.07,859.84c-0.9,0-1.63-0.73-1.63-1.63v-9.85
			c0-0.9,0.73-1.63,1.63-1.63c0.9,0,1.63,0.73,1.63,1.63v9.85C1349.71,859.11,1348.97,859.84,1348.07,859.84z M971.08,858.83
			c-0.9,0-1.63-0.73-1.63-1.63v-9.85c0-0.9,0.73-1.63,1.63-1.63c0.9,0,1.63,0.73,1.63,1.63v9.85
			C972.71,858.1,971.98,858.83,971.08,858.83z M1348.07,840.13c-0.9,0-1.63-0.73-1.63-1.63v-4.45c0-1.64-0.26-3.25-0.78-4.79
			c-0.29-0.85,0.17-1.78,1.03-2.07c0.85-0.29,1.78,0.17,2.07,1.03c0.63,1.87,0.95,3.84,0.95,5.83v4.45
			C1349.71,839.4,1348.97,840.13,1348.07,840.13z M971.08,839.13c-0.9,0-1.63-0.73-1.63-1.63v-3.44c0-2.37,0.45-4.68,1.33-6.86
			c0.34-0.83,1.29-1.24,2.12-0.9c0.83,0.34,1.24,1.29,0.9,2.12c-0.73,1.79-1.09,3.69-1.09,5.64v3.44
			C972.71,838.4,971.98,839.13,971.08,839.13z M1341.56,822.48c-0.35,0-0.7-0.11-0.99-0.34c-2.37-1.82-5.21-2.88-8.19-3.07
			c-0.9-0.06-1.58-0.83-1.53-1.73c0.05-0.9,0.84-1.59,1.73-1.53c3.64,0.22,7.09,1.51,9.98,3.74c0.71,0.55,0.85,1.57,0.3,2.29
			C1342.53,822.26,1342.05,822.48,1341.56,822.48z M978.41,821.9c-0.52,0-1.04-0.25-1.35-0.72c-0.5-0.75-0.31-1.76,0.44-2.26
			c3.01-2.04,6.54-3.12,10.19-3.13c0,0,0,0,0,0c0.9,0,1.63,0.73,1.63,1.63c0,0.9-0.73,1.63-1.63,1.63c-3,0.01-5.89,0.89-8.37,2.57
			C979.04,821.81,978.72,821.9,978.41,821.9z M1322.62,819.05h-9.85c-0.9,0-1.63-0.73-1.63-1.63c0-0.9,0.73-1.63,1.63-1.63h9.85
			c0.9,0,1.63,0.73,1.63,1.63C1324.25,818.32,1323.52,819.05,1322.62,819.05z M1302.92,819.05h-9.85c-0.9,0-1.63-0.73-1.63-1.63
			c0-0.9,0.73-1.63,1.63-1.63h9.85c0.9,0,1.63,0.73,1.63,1.63C1304.55,818.32,1303.82,819.05,1302.92,819.05z M1283.22,819.05h-9.85
			c-0.9,0-1.63-0.73-1.63-1.63c0-0.9,0.73-1.63,1.63-1.63h9.85c0.9,0,1.63,0.73,1.63,1.63
			C1284.85,818.32,1284.12,819.05,1283.22,819.05z M1263.52,819.05h-9.85c-0.9,0-1.63-0.73-1.63-1.63c0-0.9,0.73-1.63,1.63-1.63
			h9.85c0.9,0,1.63,0.73,1.63,1.63C1265.15,818.32,1264.42,819.05,1263.52,819.05z M1243.81,819.05h-9.85
			c-0.9,0-1.63-0.73-1.63-1.63c0-0.9,0.73-1.63,1.63-1.63h9.85c0.9,0,1.63,0.73,1.63,1.63
			C1245.44,818.32,1244.71,819.05,1243.81,819.05z M1224.11,819.05h-9.85c-0.9,0-1.63-0.73-1.63-1.63c0-0.9,0.73-1.63,1.63-1.63
			h9.85c0.9,0,1.63,0.73,1.63,1.63C1225.74,818.32,1225.01,819.05,1224.11,819.05z M1204.41,819.05h-9.85
			c-0.9,0-1.63-0.73-1.63-1.63c0-0.9,0.73-1.63,1.63-1.63h9.85c0.9,0,1.63,0.73,1.63,1.63
			C1206.04,818.32,1205.31,819.05,1204.41,819.05z M1184.71,819.05h-9.85c-0.9,0-1.63-0.73-1.63-1.63c0-0.9,0.73-1.63,1.63-1.63
			h9.85c0.9,0,1.63,0.73,1.63,1.63C1186.34,818.32,1185.61,819.05,1184.71,819.05z M1165,819.05h-9.85c-0.9,0-1.63-0.73-1.63-1.63
			c0-0.9,0.73-1.63,1.63-1.63h9.85c0.9,0,1.63,0.73,1.63,1.63C1166.64,818.32,1165.91,819.05,1165,819.05z M1145.3,819.05h-9.85
			c-0.9,0-1.63-0.73-1.63-1.63c0-0.9,0.73-1.63,1.63-1.63h9.85c0.9,0,1.63,0.73,1.63,1.63
			C1146.93,818.32,1146.2,819.05,1145.3,819.05z M1125.6,819.05h-9.85c-0.9,0-1.63-0.73-1.63-1.63c0-0.9,0.73-1.63,1.63-1.63h9.85
			c0.9,0,1.63,0.73,1.63,1.63C1127.23,818.32,1126.5,819.05,1125.6,819.05z M1105.9,819.05h-9.85c-0.9,0-1.63-0.73-1.63-1.63
			c0-0.9,0.73-1.63,1.63-1.63h9.85c0.9,0,1.63,0.73,1.63,1.63C1107.53,818.32,1106.8,819.05,1105.9,819.05z M1086.2,819.05h-9.85
			c-0.9,0-1.63-0.73-1.63-1.63c0-0.9,0.73-1.63,1.63-1.63h9.85c0.9,0,1.63,0.73,1.63,1.63
			C1087.83,818.32,1087.1,819.05,1086.2,819.05z M1066.49,819.05h-9.85c-0.9,0-1.63-0.73-1.63-1.63c0-0.9,0.73-1.63,1.63-1.63h9.85
			c0.9,0,1.63,0.73,1.63,1.63C1068.12,818.32,1067.39,819.05,1066.49,819.05z M1046.79,819.05h-9.85c-0.9,0-1.63-0.73-1.63-1.63
			c0-0.9,0.73-1.63,1.63-1.63h9.85c0.9,0,1.63,0.73,1.63,1.63C1048.42,818.32,1047.69,819.05,1046.79,819.05z M1027.09,819.05h-9.85
			c-0.9,0-1.63-0.73-1.63-1.63c0-0.9,0.73-1.63,1.63-1.63h9.85c0.9,0,1.63,0.73,1.63,1.63
			C1028.72,818.32,1027.99,819.05,1027.09,819.05z M1007.39,819.05h-9.85c-0.9,0-1.63-0.73-1.63-1.63c0-0.9,0.73-1.63,1.63-1.63
			h9.85c0.9,0,1.63,0.73,1.63,1.63C1009.02,818.32,1008.29,819.05,1007.39,819.05z"/>
	</g>
	<g>
		<path style="fill:#739AF0;" d="M1891.5,1310.97h-8.79c-0.8,0-1.44-0.65-1.44-1.44c0-0.8,0.65-1.44,1.44-1.44h8.73
			c0.8,0,1.48,0.65,1.48,1.44C1892.91,1310.32,1892.29,1310.97,1891.5,1310.97z M1873.98,1310.97h-8.73c-0.8,0-1.44-0.65-1.44-1.44
			c0-0.8,0.65-1.44,1.44-1.44h8.73c0.8,0,1.44,0.65,1.44,1.44C1875.42,1310.32,1874.78,1310.97,1873.98,1310.97z M1856.52,1310.97
			h-8.73c-0.8,0-1.44-0.65-1.44-1.44c0-0.8,0.65-1.44,1.44-1.44h8.73c0.8,0,1.44,0.65,1.44,1.44
			C1857.97,1310.32,1857.32,1310.97,1856.52,1310.97z M1839.07,1310.97h-8.73c-0.8,0-1.44-0.65-1.44-1.44c0-0.8,0.65-1.44,1.44-1.44
			h8.73c0.8,0,1.44,0.65,1.44,1.44C1840.52,1310.32,1839.87,1310.97,1839.07,1310.97z M1821.62,1310.97h-8.73
			c-0.8,0-1.44-0.65-1.44-1.44c0-0.8,0.65-1.44,1.44-1.44h8.73c0.8,0,1.44,0.65,1.44,1.44
			C1823.06,1310.32,1822.41,1310.97,1821.62,1310.97z M1804.16,1310.97h-8.73c-0.8,0-1.44-0.65-1.44-1.44c0-0.8,0.65-1.44,1.44-1.44
			h8.73c0.8,0,1.44,0.65,1.44,1.44C1805.61,1310.32,1804.96,1310.97,1804.16,1310.97z M1786.71,1310.97h-8.73
			c-0.8,0-1.44-0.65-1.44-1.44c0-0.8,0.65-1.44,1.44-1.44h8.73c0.8,0,1.44,0.65,1.44,1.44
			C1788.16,1310.32,1787.51,1310.97,1786.71,1310.97z M1769.26,1310.97h-8.73c-0.8,0-1.44-0.65-1.44-1.44c0-0.8,0.65-1.44,1.44-1.44
			h8.73c0.8,0,1.44,0.65,1.44,1.44C1770.7,1310.32,1770.05,1310.97,1769.26,1310.97z M1751.8,1310.97h-8.73
			c-0.8,0-1.44-0.65-1.44-1.44c0-0.8,0.65-1.44,1.44-1.44h8.73c0.8,0,1.44,0.65,1.44,1.44
			C1753.25,1310.32,1752.6,1310.97,1751.8,1310.97z M1734.35,1310.97h-8.43c-0.12,0-0.25,0-0.37-0.01c-0.8-0.04-1.41-0.72-1.37-1.51
			c0.04-0.8,0.69-1.4,1.51-1.37c0.08,0,0.15,0.01,0.23,0.01h8.43c0.8,0,1.44,0.65,1.44,1.44
			C1735.79,1310.32,1735.15,1310.97,1734.35,1310.97z M1897.14,1305.44c-0.02,0-0.03,0-0.05,0c-0.8-0.03-1.42-0.69-1.4-1.49l0-0.14
			v-8.54c0-0.8,0.65-1.44,1.44-1.44c0.8,0,1.44,0.65,1.44,1.44l0,8.77C1898.56,1304.82,1897.92,1305.44,1897.14,1305.44z
			 M1720.21,1305.2c-0.8,0-1.44-0.65-1.44-1.44v-8.73c0-0.8,0.65-1.44,1.44-1.44s1.44,0.65,1.44,1.44v8.73
			C1721.66,1304.56,1721.01,1305.2,1720.21,1305.2z M1897.14,1287.98c-0.8,0-1.44-0.65-1.44-1.44v-8.73c0-0.8,0.65-1.44,1.44-1.44
			c0.8,0,1.44,0.65,1.44,1.44v8.73C1898.59,1287.34,1897.94,1287.98,1897.14,1287.98z M1720.21,1287.75c-0.8,0-1.44-0.65-1.44-1.44
			v-8.73c0-0.8,0.65-1.44,1.44-1.44s1.44,0.65,1.44,1.44v8.73C1721.66,1287.1,1721.01,1287.75,1720.21,1287.75z M1897.14,1270.53
			c-0.8,0-1.44-0.65-1.44-1.44v-8.73c0-0.8,0.65-1.44,1.44-1.44c0.8,0,1.44,0.65,1.44,1.44v8.73
			C1898.59,1269.88,1897.94,1270.53,1897.14,1270.53z M1720.21,1270.3c-0.8,0-1.44-0.65-1.44-1.44v-8.51c0-0.09,0-0.18,0.01-0.28
			c0.03-0.8,0.67-1.43,1.5-1.38c0.8,0.03,1.42,0.7,1.38,1.5l0,0.16v8.51C1721.66,1269.65,1721.01,1270.3,1720.21,1270.3z
			 M1891.7,1256.08c-0.02,0-0.04,0-0.06,0l-0.2,0h-8.46c-0.8,0-1.44-0.65-1.44-1.44c0-0.8,0.65-1.44,1.44-1.44h8.46
			c0.11,0,0.22,0,0.33,0.01c0.8,0.04,1.42,0.71,1.38,1.51C1893.11,1255.47,1892.47,1256.08,1891.7,1256.08z M1874.24,1256.07h-8.73
			c-0.8,0-1.44-0.65-1.44-1.44c0-0.8,0.65-1.44,1.44-1.44h8.73c0.8,0,1.44,0.65,1.44,1.44
			C1875.69,1255.43,1875.04,1256.07,1874.24,1256.07z M1856.79,1256.07h-8.73c-0.8,0-1.44-0.65-1.44-1.44c0-0.8,0.65-1.44,1.44-1.44
			h8.73c0.8,0,1.44,0.65,1.44,1.44C1858.24,1255.43,1857.59,1256.07,1856.79,1256.07z M1839.34,1256.07h-8.73
			c-0.8,0-1.44-0.65-1.44-1.44c0-0.8,0.65-1.44,1.44-1.44h8.73c0.8,0,1.44,0.65,1.44,1.44
			C1840.78,1255.43,1840.14,1256.07,1839.34,1256.07z M1821.88,1256.07h-8.73c-0.8,0-1.44-0.65-1.44-1.44c0-0.8,0.65-1.44,1.44-1.44
			h8.73c0.8,0,1.44,0.65,1.44,1.44C1823.33,1255.43,1822.68,1256.07,1821.88,1256.07z M1804.43,1256.07h-8.73
			c-0.8,0-1.44-0.65-1.44-1.44c0-0.8,0.65-1.44,1.44-1.44h8.73c0.8,0,1.44,0.65,1.44,1.44
			C1805.87,1255.43,1805.23,1256.07,1804.43,1256.07z M1786.98,1256.07h-8.73c-0.8,0-1.44-0.65-1.44-1.44c0-0.8,0.65-1.44,1.44-1.44
			h8.73c0.8,0,1.44,0.65,1.44,1.44C1788.42,1255.43,1787.78,1256.07,1786.98,1256.07z M1769.52,1256.07h-8.73
			c-0.8,0-1.44-0.65-1.44-1.44c0-0.8,0.65-1.44,1.44-1.44h8.73c0.8,0,1.44,0.65,1.44,1.44
			C1770.97,1255.43,1770.32,1256.07,1769.52,1256.07z M1752.07,1256.07h-8.73c-0.8,0-1.44-0.65-1.44-1.44c0-0.8,0.65-1.44,1.44-1.44
			h8.73c0.8,0,1.44,0.65,1.44,1.44C1753.51,1255.43,1752.87,1256.07,1752.07,1256.07z M1734.62,1256.07h-8.69
			c-0.8,0-1.46-0.65-1.46-1.44c0-0.8,0.63-1.44,1.43-1.44h8.73c0.8,0,1.44,0.65,1.44,1.44
			C1736.06,1255.43,1735.41,1256.07,1734.62,1256.07z"/>
	</g>
	<g>
		<path style="fill:#739AF0;" d="M1268.16,790.17h-9.72c-0.9,0-1.63-0.73-1.63-1.63c0-0.9,0.73-1.63,1.63-1.63h9.66
			c0.9,0,1.66,0.73,1.66,1.63C1269.76,789.44,1269.06,790.17,1268.16,790.17z M1248.79,790.17h-9.66c-0.9,0-1.63-0.73-1.63-1.63
			c0-0.9,0.73-1.63,1.63-1.63h9.66c0.9,0,1.63,0.73,1.63,1.63C1250.42,789.44,1249.69,790.17,1248.79,790.17z M1229.48,790.17h-9.66
			c-0.9,0-1.63-0.73-1.63-1.63c0-0.9,0.73-1.63,1.63-1.63h9.66c0.9,0,1.63,0.73,1.63,1.63
			C1231.11,789.44,1230.38,790.17,1229.48,790.17z M1210.16,790.17h-9.66c-0.9,0-1.63-0.73-1.63-1.63c0-0.9,0.73-1.63,1.63-1.63
			h9.66c0.9,0,1.63,0.73,1.63,1.63C1211.79,789.44,1211.06,790.17,1210.16,790.17z M1190.85,790.17h-9.66
			c-0.9,0-1.63-0.73-1.63-1.63c0-0.9,0.73-1.63,1.63-1.63h9.66c0.9,0,1.63,0.73,1.63,1.63
			C1192.48,789.44,1191.75,790.17,1190.85,790.17z M1171.54,790.17h-9.66c-0.9,0-1.63-0.73-1.63-1.63c0-0.9,0.73-1.63,1.63-1.63
			h9.66c0.9,0,1.63,0.73,1.63,1.63C1173.17,789.44,1172.44,790.17,1171.54,790.17z M1152.22,790.17h-9.66
			c-0.9,0-1.63-0.73-1.63-1.63c0-0.9,0.73-1.63,1.63-1.63h9.66c0.9,0,1.63,0.73,1.63,1.63
			C1153.85,789.44,1153.12,790.17,1152.22,790.17z M1133.09,789.13c-0.27,0-0.55-0.07-0.8-0.21c-3.02-1.71-4.9-4.93-4.9-8.4v-1.18
			c0-0.9,0.73-1.63,1.63-1.63s1.63,0.73,1.63,1.63v1.18c0,2.3,1.24,4.43,3.24,5.56c0.78,0.44,1.06,1.44,0.61,2.22
			C1134.21,788.84,1133.66,789.13,1133.09,789.13z M1275.61,784.98c-0.19,0-0.38-0.03-0.57-0.1c-0.84-0.32-1.27-1.26-0.95-2.1
			c0.27-0.72,0.41-1.48,0.41-2.25v-6.77c0-0.9,0.73-1.63,1.63-1.63s1.63,0.73,1.63,1.63v6.77c0,1.17-0.21,2.31-0.62,3.4
			C1276.89,784.57,1276.27,784.98,1275.61,784.98z M1129.02,771.31c-0.9,0-1.63-0.73-1.63-1.63v-9.66c0-0.9,0.73-1.63,1.63-1.63
			s1.63,0.73,1.63,1.63v9.66C1130.65,770.58,1129.92,771.31,1129.02,771.31z M1276.13,765.72c-0.9,0-1.63-0.73-1.63-1.63v-9.66
			c0-0.9,0.73-1.63,1.63-1.63s1.63,0.73,1.63,1.63v9.66C1277.76,764.99,1277.03,765.72,1276.13,765.72z M1129.02,752
			c-0.9,0-1.63-0.73-1.63-1.63v-9.66c0-0.9,0.73-1.63,1.63-1.63s1.63,0.73,1.63,1.63v9.66C1130.65,751.27,1129.92,752,1129.02,752z
			 M1276.13,746.41c-0.9,0-1.63-0.73-1.63-1.63v-9.66c0-0.9,0.73-1.63,1.63-1.63s1.63,0.73,1.63,1.63v9.66
			C1277.76,745.68,1277.03,746.41,1276.13,746.41z M1129.02,732.68c-0.9,0-1.63-0.73-1.63-1.63v-9.66c0-0.9,0.73-1.63,1.63-1.63
			s1.63,0.73,1.63,1.63v9.66C1130.65,731.95,1129.92,732.68,1129.02,732.68z M1276.13,727.1c-0.9,0-1.63-0.73-1.63-1.63v-9.66
			c0-0.9,0.73-1.63,1.63-1.63s1.63,0.73,1.63,1.63v9.66C1277.76,726.37,1277.03,727.1,1276.13,727.1z M1129.02,713.37
			c-0.9,0-1.63-0.73-1.63-1.63v-9.66c0-0.9,0.73-1.63,1.63-1.63s1.63,0.73,1.63,1.63v9.66
			C1130.65,712.64,1129.92,713.37,1129.02,713.37z M1276.13,707.78c-0.9,0-1.63-0.73-1.63-1.63v-9.66c0-0.9,0.73-1.63,1.63-1.63
			s1.63,0.73,1.63,1.63v9.66C1277.76,707.05,1277.03,707.78,1276.13,707.78z M1129.02,694.06c-0.9,0-1.63-0.73-1.63-1.63v-9.66
			c0-0.9,0.73-1.63,1.63-1.63s1.63,0.73,1.63,1.63v9.66C1130.65,693.33,1129.92,694.06,1129.02,694.06z M1276.13,688.47
			c-0.9,0-1.63-0.73-1.63-1.63v-9.66c0-0.9,0.73-1.63,1.63-1.63s1.63,0.73,1.63,1.63v9.66
			C1277.76,687.74,1277.03,688.47,1276.13,688.47z M1129.02,674.74c-0.9,0-1.63-0.73-1.63-1.63v-6.74c0-1.18,0.21-2.34,0.63-3.43
			c0.32-0.84,1.26-1.26,2.1-0.94c0.84,0.32,1.26,1.26,0.94,2.1c-0.28,0.73-0.42,1.49-0.42,2.27v6.74
			C1130.65,674.01,1129.92,674.74,1129.02,674.74z M1276.13,669.16c-0.9,0-1.63-0.73-1.63-1.63v-1.15c0-2.31-1.25-4.44-3.27-5.58
			c-0.78-0.44-1.06-1.44-0.62-2.22c0.44-0.78,1.44-1.06,2.22-0.62c3.04,1.71,4.93,4.93,4.93,8.42v1.15
			C1277.76,668.43,1277.03,669.16,1276.13,669.16z M1262.55,659.98h-9.66c-0.9,0-1.63-0.73-1.63-1.63c0-0.9,0.73-1.63,1.63-1.63
			h9.66c0.9,0,1.63,0.73,1.63,1.63C1264.18,659.25,1263.45,659.98,1262.55,659.98z M1243.24,659.98h-9.66
			c-0.9,0-1.63-0.73-1.63-1.63c0-0.9,0.73-1.63,1.63-1.63h9.66c0.9,0,1.63,0.73,1.63,1.63
			C1244.87,659.25,1244.14,659.98,1243.24,659.98z M1223.92,659.98h-9.66c-0.9,0-1.63-0.73-1.63-1.63c0-0.9,0.73-1.63,1.63-1.63
			h9.66c0.9,0,1.63,0.73,1.63,1.63C1225.55,659.25,1224.82,659.98,1223.92,659.98z M1204.61,659.98h-9.66
			c-0.9,0-1.63-0.73-1.63-1.63c0-0.9,0.73-1.63,1.63-1.63h9.66c0.9,0,1.63,0.73,1.63,1.63
			C1206.24,659.25,1205.51,659.98,1204.61,659.98z M1185.3,659.98h-9.66c-0.9,0-1.63-0.73-1.63-1.63c0-0.9,0.73-1.63,1.63-1.63h9.66
			c0.9,0,1.63,0.73,1.63,1.63C1186.93,659.25,1186.2,659.98,1185.3,659.98z M1165.98,659.98h-9.66c-0.9,0-1.63-0.73-1.63-1.63
			c0-0.9,0.73-1.63,1.63-1.63h9.66c0.9,0,1.63,0.73,1.63,1.63C1167.61,659.25,1166.88,659.98,1165.98,659.98z M1146.67,659.98h-9.63
			c-0.9,0-1.65-0.73-1.65-1.63c0-0.9,0.72-1.63,1.62-1.63h9.66c0.9,0,1.63,0.73,1.63,1.63
			C1148.3,659.25,1147.57,659.98,1146.67,659.98z"/>
	</g>
	<g>
		<path style="fill:#739AF0;" d="M1891.5,1391.51h-8.79c-0.8,0-1.44-0.65-1.44-1.44c0-0.8,0.65-1.44,1.44-1.44h8.73
			c0.8,0,1.48,0.65,1.48,1.44C1892.91,1390.86,1892.29,1391.51,1891.5,1391.51z M1873.98,1391.51h-8.73c-0.8,0-1.44-0.65-1.44-1.44
			c0-0.8,0.65-1.44,1.44-1.44h8.73c0.8,0,1.44,0.65,1.44,1.44C1875.42,1390.86,1874.78,1391.51,1873.98,1391.51z M1856.52,1391.51
			h-8.73c-0.8,0-1.44-0.65-1.44-1.44c0-0.8,0.65-1.44,1.44-1.44h8.73c0.8,0,1.44,0.65,1.44,1.44
			C1857.97,1390.86,1857.32,1391.51,1856.52,1391.51z M1839.07,1391.51h-8.73c-0.8,0-1.44-0.65-1.44-1.44c0-0.8,0.65-1.44,1.44-1.44
			h8.73c0.8,0,1.44,0.65,1.44,1.44C1840.52,1390.86,1839.87,1391.51,1839.07,1391.51z M1821.62,1391.51h-8.73
			c-0.8,0-1.44-0.65-1.44-1.44c0-0.8,0.65-1.44,1.44-1.44h8.73c0.8,0,1.44,0.65,1.44,1.44
			C1823.06,1390.86,1822.41,1391.51,1821.62,1391.51z M1804.16,1391.51h-8.73c-0.8,0-1.44-0.65-1.44-1.44c0-0.8,0.65-1.44,1.44-1.44
			h8.73c0.8,0,1.44,0.65,1.44,1.44C1805.61,1390.86,1804.96,1391.51,1804.16,1391.51z M1786.71,1391.51h-8.73
			c-0.8,0-1.44-0.65-1.44-1.44c0-0.8,0.65-1.44,1.44-1.44h8.73c0.8,0,1.44,0.65,1.44,1.44
			C1788.16,1390.86,1787.51,1391.51,1786.71,1391.51z M1769.26,1391.51h-8.73c-0.8,0-1.44-0.65-1.44-1.44c0-0.8,0.65-1.44,1.44-1.44
			h8.73c0.8,0,1.44,0.65,1.44,1.44C1770.7,1390.86,1770.05,1391.51,1769.26,1391.51z M1751.8,1391.51h-8.73
			c-0.8,0-1.44-0.65-1.44-1.44c0-0.8,0.65-1.44,1.44-1.44h8.73c0.8,0,1.44,0.65,1.44,1.44
			C1753.25,1390.86,1752.6,1391.51,1751.8,1391.51z M1734.35,1391.51h-8.43c-0.12,0-0.25,0-0.37-0.01c-0.8-0.04-1.41-0.72-1.37-1.51
			c0.04-0.8,0.69-1.42,1.51-1.37c0.08,0,0.15,0.01,0.23,0.01h8.43c0.8,0,1.44,0.65,1.44,1.44
			C1735.79,1390.86,1735.15,1391.51,1734.35,1391.51z M1897.14,1385.98c-0.02,0-0.03,0-0.05,0c-0.8-0.03-1.42-0.69-1.4-1.49l0-0.14
			v-8.54c0-0.8,0.65-1.44,1.44-1.44c0.8,0,1.44,0.65,1.44,1.44l0,8.77C1898.56,1385.36,1897.92,1385.98,1897.14,1385.98z
			 M1720.21,1385.75c-0.8,0-1.44-0.65-1.44-1.44v-8.73c0-0.8,0.65-1.44,1.44-1.44s1.44,0.65,1.44,1.44v8.73
			C1721.66,1385.1,1721.01,1385.75,1720.21,1385.75z M1897.14,1368.53c-0.8,0-1.44-0.65-1.44-1.44v-8.73c0-0.8,0.65-1.44,1.44-1.44
			c0.8,0,1.44,0.65,1.44,1.44v8.73C1898.59,1367.88,1897.94,1368.53,1897.14,1368.53z M1720.21,1368.29c-0.8,0-1.44-0.65-1.44-1.44
			v-8.73c0-0.8,0.65-1.44,1.44-1.44s1.44,0.65,1.44,1.44v8.73C1721.66,1367.65,1721.01,1368.29,1720.21,1368.29z M1897.14,1351.07
			c-0.8,0-1.44-0.65-1.44-1.44v-8.73c0-0.8,0.65-1.44,1.44-1.44c0.8,0,1.44,0.65,1.44,1.44v8.73
			C1898.59,1350.43,1897.94,1351.07,1897.14,1351.07z M1720.21,1350.84c-0.8,0-1.44-0.65-1.44-1.44v-8.51c0-0.09,0-0.18,0.01-0.28
			c0.03-0.8,0.67-1.42,1.5-1.38c0.8,0.03,1.42,0.7,1.38,1.5l0,0.16v8.51C1721.66,1350.19,1721.01,1350.84,1720.21,1350.84z
			 M1891.7,1336.62c-0.02,0-0.04,0-0.06,0l-0.2,0h-8.46c-0.8,0-1.44-0.65-1.44-1.44c0-0.8,0.65-1.44,1.44-1.44h8.46
			c0.11,0,0.22,0,0.33,0.01c0.8,0.04,1.42,0.71,1.38,1.51C1893.11,1336.02,1892.47,1336.62,1891.7,1336.62z M1874.24,1336.62h-8.73
			c-0.8,0-1.44-0.65-1.44-1.44c0-0.8,0.65-1.44,1.44-1.44h8.73c0.8,0,1.44,0.65,1.44,1.44
			C1875.69,1335.97,1875.04,1336.62,1874.24,1336.62z M1856.79,1336.62h-8.73c-0.8,0-1.44-0.65-1.44-1.44c0-0.8,0.65-1.44,1.44-1.44
			h8.73c0.8,0,1.44,0.65,1.44,1.44C1858.24,1335.97,1857.59,1336.62,1856.79,1336.62z M1839.34,1336.62h-8.73
			c-0.8,0-1.44-0.65-1.44-1.44c0-0.8,0.65-1.44,1.44-1.44h8.73c0.8,0,1.44,0.65,1.44,1.44
			C1840.78,1335.97,1840.14,1336.62,1839.34,1336.62z M1821.88,1336.62h-8.73c-0.8,0-1.44-0.65-1.44-1.44c0-0.8,0.65-1.44,1.44-1.44
			h8.73c0.8,0,1.44,0.65,1.44,1.44C1823.33,1335.97,1822.68,1336.62,1821.88,1336.62z M1804.43,1336.62h-8.73
			c-0.8,0-1.44-0.65-1.44-1.44c0-0.8,0.65-1.44,1.44-1.44h8.73c0.8,0,1.44,0.65,1.44,1.44
			C1805.87,1335.97,1805.23,1336.62,1804.43,1336.62z M1786.98,1336.62h-8.73c-0.8,0-1.44-0.65-1.44-1.44c0-0.8,0.65-1.44,1.44-1.44
			h8.73c0.8,0,1.44,0.65,1.44,1.44C1788.42,1335.97,1787.78,1336.62,1786.98,1336.62z M1769.52,1336.62h-8.73
			c-0.8,0-1.44-0.65-1.44-1.44c0-0.8,0.65-1.44,1.44-1.44h8.73c0.8,0,1.44,0.65,1.44,1.44
			C1770.97,1335.97,1770.32,1336.62,1769.52,1336.62z M1752.07,1336.62h-8.73c-0.8,0-1.44-0.65-1.44-1.44c0-0.8,0.65-1.44,1.44-1.44
			h8.73c0.8,0,1.44,0.65,1.44,1.44C1753.51,1335.97,1752.87,1336.62,1752.07,1336.62z M1734.62,1336.62h-8.69
			c-0.8,0-1.46-0.65-1.46-1.44c0-0.8,0.63-1.44,1.43-1.44h8.73c0.8,0,1.44,0.65,1.44,1.44
			C1736.06,1335.97,1735.41,1336.62,1734.62,1336.62z"/>
	</g>
	<g>
		<path style="fill:#739AF0;" d="M1202.81,1330.83h-8.71c-0.8,0-1.44-0.65-1.44-1.44c0-0.8,0.65-1.44,1.44-1.44h8.65
			c0.8,0,1.47,0.65,1.47,1.44C1204.22,1330.18,1203.6,1330.83,1202.81,1330.83z M1185.44,1330.83h-8.65c-0.8,0-1.44-0.65-1.44-1.44
			c0-0.8,0.65-1.44,1.44-1.44h8.65c0.8,0,1.44,0.65,1.44,1.44C1186.89,1330.18,1186.24,1330.83,1185.44,1330.83z M1168.14,1330.83
			h-8.65c-0.8,0-1.44-0.65-1.44-1.44c0-0.8,0.65-1.44,1.44-1.44h8.65c0.8,0,1.44,0.65,1.44,1.44
			C1169.59,1330.18,1168.94,1330.83,1168.14,1330.83z M1150.84,1330.83h-8.65c-0.8,0-1.44-0.65-1.44-1.44c0-0.8,0.65-1.44,1.44-1.44
			h8.65c0.8,0,1.44,0.65,1.44,1.44C1152.28,1330.18,1151.64,1330.83,1150.84,1330.83z M1133.53,1330.83h-8.65
			c-0.8,0-1.44-0.65-1.44-1.44c0-0.8,0.65-1.44,1.44-1.44h8.65c0.8,0,1.44,0.65,1.44,1.44
			C1134.98,1330.18,1134.33,1330.83,1133.53,1330.83z M1116.23,1330.83h-8.65c-0.8,0-1.44-0.65-1.44-1.44c0-0.8,0.65-1.44,1.44-1.44
			h8.65c0.8,0,1.44,0.65,1.44,1.44C1117.68,1330.18,1117.03,1330.83,1116.23,1330.83z M1098.93,1330.83h-8.65
			c-0.8,0-1.44-0.65-1.44-1.44c0-0.8,0.65-1.44,1.44-1.44h8.65c0.8,0,1.44,0.65,1.44,1.44
			C1100.37,1330.18,1099.73,1330.83,1098.93,1330.83z M1081.63,1330.83h-8.65c-0.8,0-1.44-0.65-1.44-1.44c0-0.8,0.65-1.44,1.44-1.44
			h8.65c0.8,0,1.44,0.65,1.44,1.44C1083.07,1330.18,1082.42,1330.83,1081.63,1330.83z M1064.32,1330.83h-8.65
			c-0.8,0-1.44-0.65-1.44-1.44c0-0.8,0.65-1.44,1.44-1.44h8.65c0.8,0,1.44,0.65,1.44,1.44
			C1065.77,1330.18,1065.12,1330.83,1064.32,1330.83z M1047.02,1330.83h-8.65c-0.8,0-1.44-0.65-1.44-1.44c0-0.8,0.65-1.44,1.44-1.44
			h8.65c0.8,0,1.44,0.65,1.44,1.44C1048.47,1330.18,1047.82,1330.83,1047.02,1330.83z M1029.72,1330.83h-8.65
			c-0.8,0-1.44-0.65-1.44-1.44c0-0.8,0.65-1.44,1.44-1.44h8.65c0.8,0,1.44,0.65,1.44,1.44
			C1031.16,1330.18,1030.52,1330.83,1029.72,1330.83z M1012.42,1330.83h-8.65c-0.8,0-1.44-0.65-1.44-1.44c0-0.8,0.65-1.44,1.44-1.44
			h8.65c0.8,0,1.44,0.65,1.44,1.44C1013.86,1330.18,1013.21,1330.83,1012.42,1330.83z M995.11,1330.83h-8.65
			c-0.8,0-1.44-0.65-1.44-1.44c0-0.8,0.65-1.44,1.44-1.44h8.65c0.8,0,1.44,0.65,1.44,1.44
			C996.56,1330.18,995.91,1330.83,995.11,1330.83z M977.81,1330.83h-8.65c-0.8,0-1.44-0.65-1.44-1.44c0-0.8,0.65-1.44,1.44-1.44
			h8.65c0.8,0,1.44,0.65,1.44,1.44C979.25,1330.18,978.61,1330.83,977.81,1330.83z M960.51,1330.83h-8.65
			c-0.8,0-1.44-0.65-1.44-1.44c0-0.8,0.65-1.44,1.44-1.44h8.65c0.8,0,1.44,0.65,1.44,1.44
			C961.95,1330.18,961.3,1330.83,960.51,1330.83z M943.2,1330.83h-6.91c-0.64,0-1.28-0.04-1.91-0.11c-0.79-0.09-1.36-0.81-1.27-1.6
			c0.09-0.79,0.81-1.36,1.6-1.27c0.51,0.06,1.04,0.09,1.57,0.09h6.91c0.8,0,1.44,0.65,1.44,1.44
			C944.65,1330.18,944,1330.83,943.2,1330.83z M1210.96,1328.34c-0.47,0-0.92-0.22-1.2-0.64c-0.44-0.66-0.27-1.56,0.39-2
			c2.19-1.47,3.87-3.52,4.88-5.95c0.31-0.74,1.15-1.08,1.89-0.78c0.74,0.31,1.09,1.15,0.78,1.89c-1.23,2.95-3.28,5.45-5.94,7.24
			C1211.51,1328.26,1211.23,1328.34,1210.96,1328.34z M926.74,1327.32c-0.33,0-0.66-0.11-0.94-0.34c-2.44-2.08-4.2-4.8-5.07-7.87
			c-0.22-0.77,0.22-1.57,0.99-1.79c0.77-0.22,1.57,0.22,1.79,0.99c0.72,2.52,2.16,4.75,4.17,6.46c0.61,0.52,0.68,1.43,0.16,2.04
			C927.56,1327.15,927.15,1327.32,926.74,1327.32z M1217.49,1313.24c-0.8,0-1.44-0.65-1.44-1.44v-8.65c0-0.8,0.65-1.44,1.44-1.44
			s1.44,0.65,1.44,1.44v8.65C1218.93,1312.59,1218.28,1313.24,1217.49,1313.24z M921.56,1311.55c-0.8,0-1.44-0.65-1.44-1.44v-8.65
			c0-0.8,0.65-1.44,1.44-1.44c0.8,0,1.44,0.65,1.44,1.44v8.65C923,1310.91,922.36,1311.55,921.56,1311.55z M1217.49,1295.94
			c-0.8,0-1.44-0.65-1.44-1.44v-8.65c0-0.8,0.65-1.44,1.44-1.44s1.44,0.65,1.44,1.44v8.65
			C1218.93,1295.29,1218.28,1295.94,1217.49,1295.94z M921.56,1294.25c-0.8,0-1.44-0.65-1.44-1.44v-8.65c0-0.8,0.65-1.44,1.44-1.44
			c0.8,0,1.44,0.65,1.44,1.44v8.65C923,1293.6,922.36,1294.25,921.56,1294.25z M1217.49,1278.63c-0.8,0-1.44-0.65-1.44-1.44v-8.65
			c0-0.8,0.65-1.44,1.44-1.44s1.44,0.65,1.44,1.44v8.65C1218.93,1277.99,1218.28,1278.63,1217.49,1278.63z M921.56,1276.95
			c-0.8,0-1.44-0.65-1.44-1.44v-8.65c0-0.8,0.65-1.44,1.44-1.44c0.8,0,1.44,0.65,1.44,1.44v8.65
			C923,1276.3,922.36,1276.95,921.56,1276.95z M1217.49,1261.33c-0.8,0-1.44-0.65-1.44-1.44v-8.65c0-0.8,0.65-1.44,1.44-1.44
			s1.44,0.65,1.44,1.44v8.65C1218.93,1260.69,1218.28,1261.33,1217.49,1261.33z M921.56,1259.65c-0.8,0-1.44-0.65-1.44-1.44v-8.65
			c0-0.8,0.65-1.44,1.44-1.44c0.8,0,1.44,0.65,1.44,1.44v8.65C923,1259,922.36,1259.65,921.56,1259.65z M1217.49,1244.03
			c-0.8,0-1.44-0.65-1.44-1.44v-8.65c0-0.8,0.65-1.44,1.44-1.44s1.44,0.65,1.44,1.44v8.65
			C1218.93,1243.38,1218.28,1244.03,1217.49,1244.03z M921.56,1242.34c-0.8,0-1.44-0.65-1.44-1.44v-8.65c0-0.8,0.65-1.44,1.44-1.44
			c0.8,0,1.44,0.65,1.44,1.44v8.65C923,1241.7,922.36,1242.34,921.56,1242.34z M1217.49,1226.72c-0.8,0-1.44-0.65-1.44-1.44v-8.65
			c0-0.8,0.65-1.44,1.44-1.44s1.44,0.65,1.44,1.44v8.65C1218.93,1226.08,1218.28,1226.72,1217.49,1226.72z M921.56,1225.04
			c-0.8,0-1.44-0.65-1.44-1.44v-8.65c0-0.8,0.65-1.44,1.44-1.44c0.8,0,1.44,0.65,1.44,1.44v8.65
			C923,1224.39,922.36,1225.04,921.56,1225.04z M1217.49,1209.42c-0.8,0-1.44-0.65-1.44-1.44v-8.65c0-0.8,0.65-1.44,1.44-1.44
			s1.44,0.65,1.44,1.44v8.65C1218.93,1208.78,1218.28,1209.42,1217.49,1209.42z M921.56,1207.74c-0.8,0-1.44-0.65-1.44-1.44v-8.65
			c0-0.8,0.65-1.44,1.44-1.44c0.8,0,1.44,0.65,1.44,1.44v8.65C923,1207.09,922.36,1207.74,921.56,1207.74z M1217.49,1192.12
			c-0.8,0-1.44-0.65-1.44-1.44v-8.65c0-0.8,0.65-1.44,1.44-1.44s1.44,0.65,1.44,1.44v8.65
			C1218.93,1191.47,1218.28,1192.12,1217.49,1192.12z M921.56,1190.43c-0.8,0-1.44-0.65-1.44-1.44v-8.65c0-0.8,0.65-1.44,1.44-1.44
			c0.8,0,1.44,0.65,1.44,1.44v8.65C923,1189.79,922.36,1190.43,921.56,1190.43z M1217.49,1174.82c-0.8,0-1.44-0.65-1.44-1.44v-8.65
			c0-0.8,0.65-1.44,1.44-1.44s1.44,0.65,1.44,1.44v8.65C1218.93,1174.17,1218.28,1174.82,1217.49,1174.82z M921.56,1173.13
			c-0.8,0-1.44-0.65-1.44-1.44v-8.65c0-0.8,0.65-1.44,1.44-1.44c0.8,0,1.44,0.65,1.44,1.44v8.65
			C923,1172.48,922.36,1173.13,921.56,1173.13z M1217.49,1157.51c-0.8,0-1.44-0.65-1.44-1.44v-8.65c0-0.8,0.65-1.44,1.44-1.44
			s1.44,0.65,1.44,1.44v8.65C1218.93,1156.87,1218.28,1157.51,1217.49,1157.51z M921.56,1155.83c-0.8,0-1.44-0.65-1.44-1.44v-8.65
			c0-0.8,0.65-1.44,1.44-1.44c0.8,0,1.44,0.65,1.44,1.44v8.65C923,1155.18,922.36,1155.83,921.56,1155.83z M1217.49,1140.21
			c-0.8,0-1.44-0.65-1.44-1.44v-8.65c0-0.8,0.65-1.44,1.44-1.44s1.44,0.65,1.44,1.44v8.65
			C1218.93,1139.56,1218.28,1140.21,1217.49,1140.21z M921.56,1138.52c-0.8,0-1.44-0.65-1.44-1.44v-8.65c0-0.8,0.65-1.44,1.44-1.44
			c0.8,0,1.44,0.65,1.44,1.44v8.65C923,1137.88,922.36,1138.52,921.56,1138.52z M1216.91,1122.96c-0.63,0-1.2-0.41-1.39-1.04
			c-0.73-2.52-2.17-4.75-4.18-6.45c-0.61-0.52-0.68-1.43-0.17-2.04c0.52-0.61,1.43-0.68,2.04-0.17c2.45,2.07,4.21,4.79,5.09,7.86
			c0.22,0.77-0.22,1.57-0.99,1.79C1217.18,1122.94,1217.04,1122.96,1216.91,1122.96z M922.69,1121.37c-0.19,0-0.37-0.04-0.56-0.11
			c-0.74-0.31-1.08-1.15-0.78-1.89c1.23-2.95,3.29-5.45,5.95-7.23c0.66-0.44,1.56-0.27,2,0.4c0.44,0.66,0.27,1.56-0.4,2
			c-2.19,1.46-3.88,3.52-4.89,5.94C923.79,1121.04,923.26,1121.37,922.69,1121.37z M1204.46,1112.41c-0.06,0-0.11,0-0.17-0.01
			c-0.51-0.06-1.03-0.09-1.55-0.09h-6.94c-0.8,0-1.44-0.65-1.44-1.44c0-0.8,0.65-1.44,1.44-1.44h6.94c0.63,0,1.26,0.04,1.88,0.11
			c0.79,0.09,1.36,0.81,1.27,1.6C1205.81,1111.87,1205.18,1112.41,1204.46,1112.41z M1187.16,1112.31h-8.65
			c-0.8,0-1.44-0.65-1.44-1.44c0-0.8,0.65-1.44,1.44-1.44h8.65c0.8,0,1.44,0.65,1.44,1.44
			C1188.6,1111.67,1187.96,1112.31,1187.16,1112.31z M1169.86,1112.31h-8.65c-0.8,0-1.44-0.65-1.44-1.44c0-0.8,0.65-1.44,1.44-1.44
			h8.65c0.8,0,1.44,0.65,1.44,1.44C1171.3,1111.67,1170.65,1112.31,1169.86,1112.31z M1152.55,1112.31h-8.65
			c-0.8,0-1.44-0.65-1.44-1.44c0-0.8,0.65-1.44,1.44-1.44h8.65c0.8,0,1.44,0.65,1.44,1.44
			C1154,1111.67,1153.35,1112.31,1152.55,1112.31z M1135.25,1112.31h-8.65c-0.8,0-1.44-0.65-1.44-1.44c0-0.8,0.65-1.44,1.44-1.44
			h8.65c0.8,0,1.44,0.65,1.44,1.44C1136.7,1111.67,1136.05,1112.31,1135.25,1112.31z M1117.95,1112.31h-8.65
			c-0.8,0-1.44-0.65-1.44-1.44c0-0.8,0.65-1.44,1.44-1.44h8.65c0.8,0,1.44,0.65,1.44,1.44
			C1119.39,1111.67,1118.75,1112.31,1117.95,1112.31z M1100.64,1112.31h-8.65c-0.8,0-1.44-0.65-1.44-1.44c0-0.8,0.65-1.44,1.44-1.44
			h8.65c0.8,0,1.44,0.65,1.44,1.44C1102.09,1111.67,1101.44,1112.31,1100.64,1112.31z M1083.34,1112.31h-8.65
			c-0.8,0-1.44-0.65-1.44-1.44c0-0.8,0.65-1.44,1.44-1.44h8.65c0.8,0,1.44,0.65,1.44,1.44
			C1084.79,1111.67,1084.14,1112.31,1083.34,1112.31z M1066.04,1112.31h-8.65c-0.8,0-1.44-0.65-1.44-1.44c0-0.8,0.65-1.44,1.44-1.44
			h8.65c0.8,0,1.44,0.65,1.44,1.44C1067.48,1111.67,1066.84,1112.31,1066.04,1112.31z M1048.74,1112.31h-8.65
			c-0.8,0-1.44-0.65-1.44-1.44c0-0.8,0.65-1.44,1.44-1.44h8.65c0.8,0,1.44,0.65,1.44,1.44
			C1050.18,1111.67,1049.53,1112.31,1048.74,1112.31z M1031.43,1112.31h-8.65c-0.8,0-1.44-0.65-1.44-1.44c0-0.8,0.65-1.44,1.44-1.44
			h8.65c0.8,0,1.44,0.65,1.44,1.44C1032.88,1111.67,1032.23,1112.31,1031.43,1112.31z M1014.13,1112.31h-8.65
			c-0.8,0-1.44-0.65-1.44-1.44c0-0.8,0.65-1.44,1.44-1.44h8.65c0.8,0,1.44,0.65,1.44,1.44
			C1015.58,1111.67,1014.93,1112.31,1014.13,1112.31z M996.83,1112.31h-8.65c-0.8,0-1.44-0.65-1.44-1.44c0-0.8,0.65-1.44,1.44-1.44
			h8.65c0.8,0,1.44,0.65,1.44,1.44C998.27,1111.67,997.63,1112.31,996.83,1112.31z M979.53,1112.31h-8.65
			c-0.8,0-1.44-0.65-1.44-1.44c0-0.8,0.65-1.44,1.44-1.44h8.65c0.8,0,1.44,0.65,1.44,1.44
			C980.97,1111.67,980.32,1112.31,979.53,1112.31z M962.22,1112.31h-8.65c-0.8,0-1.44-0.65-1.44-1.44c0-0.8,0.65-1.44,1.44-1.44
			h8.65c0.8,0,1.44,0.65,1.44,1.44C963.67,1111.67,963.02,1112.31,962.22,1112.31z M944.92,1112.31h-8.62
			c-0.8,0-1.46-0.65-1.46-1.44c0-0.8,0.63-1.44,1.43-1.44h8.65c0.8,0,1.44,0.65,1.44,1.44
			C946.36,1111.67,945.72,1112.31,944.92,1112.31z"/>
	</g>
	<g>
		<path style="fill:#D4E1FF;" d="M1286.9,1065.65H937.23c-7.55,0-13.66-6.12-13.66-13.66V860.8c0-7.55,6.12-13.66,13.66-13.66
			h349.67c7.55,0,13.66,6.12,13.66,13.66v191.19C1300.56,1059.54,1294.44,1065.65,1286.9,1065.65z"/>
		<path style="fill:#F99746;" d="M1069.52,913.05v86.69c0,5.42,6.03,8.67,10.55,5.69l65.88-43.34c4.09-2.69,4.09-8.69,0-11.38
			l-65.88-43.34C1075.55,904.38,1069.52,907.63,1069.52,913.05z"/>
		<g>
			<path style="fill:#AEC3FF;" d="M943.16,1045.94c0-3.74,3.03-6.77,6.77-6.77c3.74,0,6.77,3.03,6.77,6.77
				c0,3.74-3.03,6.77-6.77,6.77C946.19,1052.71,943.16,1049.68,943.16,1045.94z"/>
			<path style="fill:#AEC3FF;" d="M1257.77,1047.76H951.75c-1.01,0-1.82-0.82-1.82-1.82l0,0c0-1.01,0.82-1.82,1.82-1.82h306.02
				c1.01,0,1.82,0.82,1.82,1.82l0,0C1259.59,1046.95,1258.78,1047.76,1257.77,1047.76z"/>
		</g>
	</g>
	<rect x="1276.13" y="1110.87" style="opacity:0.5;fill:#EBF3FA;" width="195.04" height="291.15"/>
	<g>
		<g>
			<g>
				<path style="fill:#2B478B;" d="M1392.37,1204.41h-2.67v-12c0-4.3,3.5-7.8,7.8-7.8h33c2.33,0,4.37-1.58,4.97-3.83l5.22-19.84
					c0.41-1.55,0.08-3.17-0.9-4.44c-0.98-1.27-2.46-2-4.07-2h-43.06v-2.67h43.06c2.44,0,4.69,1.11,6.18,3.04
					c1.49,1.93,1.99,4.39,1.37,6.75l-5.22,19.84c-0.9,3.42-4,5.82-7.55,5.82h-33c-2.83,0-5.13,2.3-5.13,5.13V1204.41z"/>
			</g>
			<path style="fill:#F99746;" d="M1423.39,1164.42h-56.71c-4.79,0-8.66-3.88-8.66-8.67v-5.18c0-4.79,3.88-8.66,8.66-8.66h56.71
				c4.79,0,8.66,3.88,8.66,8.66v5.18C1432.05,1160.54,1428.17,1164.42,1423.39,1164.42z"/>
			<path style="fill:#2B478B;" d="M1391.03,1254.21L1391.03,1254.21c-4.05,0-7.34-3.28-7.34-7.34v-44.47c0-4.05,3.29-7.34,7.34-7.34
				l0,0c4.05,0,7.34,3.29,7.34,7.34v44.47C1398.37,1250.93,1395.09,1254.21,1391.03,1254.21z"/>
		</g>
		<g>
			<path style="fill:#FFB27D;" d="M1671.81,1350.63c0,0,5.05,15.55,4.61,19.1c-0.43,3.56-3.6,15.7-5.87,18.81
				c-2.26,3.11-3.38-12.66-5.17-15.04c-1.79-2.37-0.37,5.94-1.63,6.71c-1.26,0.77-3.9-6.12-5.03-8.54
				c-1.13-2.43,2.77-11.38,2.78-17.63C1661.51,1347.81,1671.81,1350.63,1671.81,1350.63z"/>
			<path style="fill:#233862;" d="M1553.09,1227.14c-1.4-17.83,17.96-30.05,33.25-20.78c0.31,0.19,0.62,0.38,0.93,0.58
				c22.89,14.73,72.28,83.49,75.68,90.37c3.4,6.89,13.43,61.68,13.43,61.68s-12.4,4.54-18.2-0.17c0,0-20.11-51.96-23.08-54.56
				c-2.97-2.6-80.43-46.06-81.09-62.35C1553.85,1237.61,1553.51,1232.43,1553.09,1227.14z"/>
		</g>
		<g>
			<path style="fill:#2A4A7C;" d="M1691.31,1629.56c0,0,9.23,8.42,7.43,14.41c-1.8,5.98-10.13,9.97-11.26,17.29
				c-1.13,7.31-5.63,11.3-9.68,11.3s-19.32,0-19.32,0s-2.98-5.15,4.22-6.7c7.2-1.55,9.92-10.15,9.47-18.13s0.68-18.62,0.68-18.62
				l15.31-3.55L1691.31,1629.56z"/>
			<path style="fill:#2A4A7C;" d="M1578.08,1651.34c0,0,1.66,19.17-2.4,21.16l-51.86-0.11c0,0,0-5.99,8.33-7.31
				c8.33-1.33,22.96-6.21,25.44-17.07C1560.07,1637.16,1578.08,1651.34,1578.08,1651.34z"/>
			<path style="fill:#F99746;" d="M1534.3,1380.57c0,0,2.74,33.6,5.95,73.99c4.37,54.87,9.62,122.26,10.14,135.03
				c0.9,22.17,4.5,57.63,4.5,57.63s8.55,8.42,25.66,4.87c0,0,15.25-50.62,19.6-104.19c0.07-0.88,0.14-1.76,0.2-2.65
				c4.05-54.53,10.35-169.34,10.35-169.34L1534.3,1380.57z"/>
			<path style="fill:#EF7E29;" d="M1534.3,1380.57c0,0,2.74,33.6,5.95,73.99l59.91,93.35c0.07-0.88,0.14-1.76,0.2-2.65
				c4.05-54.53,10.35-169.34,10.35-169.34L1534.3,1380.57z"/>
			<path style="fill:#F99746;" d="M1546.79,1384.56c0,0,49.3,121.69,81.71,178.87c32.42,57.19,42.55,73.14,42.55,73.14
				s18.57-7.31,20.26-12.3c0,0-12.4-110.4-34.1-137.31c-12.27-15.21-26.67-60.84-27.35-76.8c-0.67-15.96-4.39-47.54-4.39-47.54
				L1546.79,1384.56z"/>
		</g>
		<path style="fill:#FFB27D;" d="M1589.3,1202.02c0,0-33.03,16.75-52.38,11.16c0,0,4.61-6.06,12.81-10.67
			c-0.74-3.85-1.33-7.18-1.68-10.02c-0.94-6.54-1.02-10.25-1.02-10.25l12.67-10.38l12.01-9.93
			C1571.29,1189.2,1589.3,1202.02,1589.3,1202.02z"/>
		<path style="fill:#2B478B;" d="M1622.11,1372.25c-13.33,8.07-25.96,14.14-40.74,17.55c-17.43,4.13-38.85,2.91-46.01,4
			c-0.74,0.1-1.43-0.09-2.09-0.53c-0.56-0.29-3.72-21.55-6.89-48.38c-0.14-1.08-0.29-2.17-0.35-3.26l-0.05-0.36
			c-1.23-10.49-2.31-21.51-3.25-32.55c-0.76-8.59-1.39-17.09-1.83-25.08c-0.55-9.99-0.78-19.16-0.55-26.71
			c0.1-3.45,0.3-6.55,0.61-9.24c1.89-15.67,9.36-26.87,16.4-35.21l5.84-6.64c6.77,0.43,13.68-0.85,20.21-5.16
			c7.13-4.7,14.83-9.75,16.28-8.9c10.93,5.98,19.83,21.48,26.19,41.95c3.64,11.78,6.44,25.15,8.23,39.31
			c0.58,4.39,1.06,8.9,1.44,13.39c0.07,0.83,0.13,1.66,0.2,2.48c0.86,12.27,2.26,23.77,3.81,34.04c2.09,13.85,4.47,25.45,6.15,33.62
			c0.84,4.16,1.49,7.37,1.87,9.68C1627.93,1368.25,1623.9,1371.13,1622.11,1372.25z"/>
		<path style="fill:#ED985F;" d="M1572.14,1172.35c0,0-8.12,15.53-24.09,20.14c-0.94-6.54-1.02-10.25-1.02-10.25l12.67-10.38
			L1572.14,1172.35z"/>
		<path style="fill:#FFB27D;" d="M1541.16,1181.92c0,0,31.92,4.57,34.52-15.04c2.6-19.62,8.47-32.24-11.8-35.99
			c-20.27-3.75-25.23,3.23-27.71,9.57C1533.68,1146.8,1532.93,1180.22,1541.16,1181.92z"/>
		<path style="fill:#2C3A64;" d="M1586.48,1128.1c0.28-0.34,0.94-0.62,2.42-0.73c0,0-1.2-0.72-2.78-0.72
			c-0.35-2.06-1.52-5.68-5.09-6.5c0,0,1.93,0.98,2.22,3.17c-4.19-4.14-13.06-7.04-37.4-4.63c-32.08,3.17-21.08,23.54-16.88,25.91
			c4.21,2.37,14.55-4.56,22.31-4.1c7.76,0.46,9.46,11.63,12.12,13.12c2.66,1.49,1.57-1.21,5.1-2.89c3.53-1.68,3.98,4.21,3.03,8.06
			c-0.95,3.85,4.04,8.81,4.04,8.81s0,0,4.83-5.42c4.83-5.42,9.04-28.04,6.7-32.8C1586.89,1128.95,1586.69,1128.52,1586.48,1128.1z"
			/>
		<path style="fill:#233862;" d="M1576.34,1258.68c0,0-26.91,20.48-55.44,24.96c-0.55-9.99-0.78-19.16-0.55-26.71L1576.34,1258.68z"
			/>
		<g>
			<path style="fill:#FFB27D;" d="M1411.07,1232.26c-0.42-0.46-5.91-18.8-15.4-17.46c-6.19,0.87-16.31,4.46-13.62,12.61
				c1.06,3.21,19.92,14.25,19.92,14.25L1411.07,1232.26z"/>
			<path style="fill:#2B478B;" d="M1579.67,1219.11c15.34,9.18,14.1,32.04-2.31,39.14c-0.34,0.15-0.67,0.29-1.01,0.42
				c-25.27,10.14-109.92,10.61-117.5,9.39c-7.58-1.22-58.07-24.75-58.07-24.75s3.48-12.74,10.67-14.74c0,0,54.01,13.69,57.85,12.77
				c3.84-0.92,84.12-38.92,97.78-30.02C1570.69,1213.68,1575.12,1216.39,1579.67,1219.11z"/>
		</g>
	</g>
	<g>
		<path style="fill:#EBF3FA;" d="M2149.15,616.85h-67.39c-2.83,0-5.15-2.32-5.15-5.15l0,0c0-2.83,2.32-5.15,5.15-5.15h67.39
			c2.83,0,5.15,2.32,5.15,5.15l0,0C2154.3,614.54,2151.98,616.85,2149.15,616.85z"/>
		<path style="fill:#EBF3FA;" d="M2149.15,636.97h-67.39c-2.83,0-5.15-2.32-5.15-5.15l0,0c0-2.83,2.32-5.15,5.15-5.15h67.39
			c2.83,0,5.15,2.32,5.15,5.15l0,0C2154.3,634.66,2151.98,636.97,2149.15,636.97z"/>
		<path style="fill:#EBF3FA;" d="M2149.15,657.61h-67.39c-2.83,0-5.15-2.32-5.15-5.15l0,0c0-2.83,2.32-5.15,5.15-5.15h67.39
			c2.83,0,5.15,2.32,5.15,5.15l0,0C2154.3,655.3,2151.98,657.61,2149.15,657.61z"/>
	</g>
	<path style="fill:#EBF3FA;" d="M1885.26,1143.49h-160.42c-3.76,0-6.83-3.07-6.83-6.83l0,0c0-3.76,3.07-6.83,6.83-6.83h160.42
		c3.76,0,6.83,3.07,6.83,6.83l0,0C1892.09,1140.42,1889.02,1143.49,1885.26,1143.49z"/>
	<path style="fill:#EBF3FA;" d="M1101.08,674.78H940.65c-3.76,0-6.83-3.07-6.83-6.83l0,0c0-3.76,3.07-6.83,6.83-6.83h160.42
		c3.76,0,6.83,3.07,6.83,6.83l0,0C1107.9,671.71,1104.83,674.78,1101.08,674.78z"/>
	<path style="fill:#EBF3FA;" d="M1885.26,1211.24h-160.42c-3.76,0-6.83-3.07-6.83-6.83l0,0c0-3.76,3.07-6.83,6.83-6.83h160.42
		c3.76,0,6.83,3.07,6.83,6.83l0,0C1892.09,1208.16,1889.02,1211.24,1885.26,1211.24z"/>
	<path style="fill:#EBF3FA;" d="M1885.26,1177.36h-191.87c-3.76,0-6.83-3.07-6.83-6.83l0,0c0-3.76,3.07-6.83,6.83-6.83h191.87
		c3.76,0,6.83,3.07,6.83,6.83l0,0C1892.09,1174.29,1889.02,1177.36,1885.26,1177.36z"/>
	<g>
		<path style="fill:#EBF3FA;" d="M1053.46,717.72h-90.52c-2.86,0-5.2-2.34-5.2-5.2v-3.26c0-2.86,2.34-5.2,5.2-5.2h90.52
			c2.86,0,5.2,2.34,5.2,5.2v3.26C1058.66,715.38,1056.32,717.72,1053.46,717.72z"/>
		<path style="fill:#EBF3FA;" d="M927.76,710.89c0-3.77,3.06-6.83,6.83-6.83c3.77,0,6.83,3.06,6.83,6.83c0,3.77-3.06,6.83-6.83,6.83
			C930.82,717.72,927.76,714.67,927.76,710.89z"/>
	</g>
	<g>
		<path style="fill:#EBF3FA;" d="M1070.64,744.9H963.37c-3.1,0-5.63-2.54-5.63-5.63v-2.39c0-3.1,2.54-5.63,5.63-5.63h107.27
			c3.1,0,5.64,2.54,5.64,5.63v2.39C1076.27,742.36,1073.74,744.9,1070.64,744.9z"/>
		<path style="fill:#EBF3FA;" d="M927.76,738.07c0-3.77,3.06-6.83,6.83-6.83c3.77,0,6.83,3.06,6.83,6.83c0,3.77-3.06,6.83-6.83,6.83
			C930.82,744.9,927.76,741.84,927.76,738.07z"/>
	</g>
	<g>
		<path style="fill:#EBF3FA;" d="M1053.46,774.4h-90.52c-2.86,0-5.2-2.34-5.2-5.2v-3.26c0-2.86,2.34-5.2,5.2-5.2h90.52
			c2.86,0,5.2,2.34,5.2,5.2v3.26C1058.66,772.06,1056.32,774.4,1053.46,774.4z"/>
		<path style="fill:#EBF3FA;" d="M927.76,767.57c0-3.77,3.06-6.83,6.83-6.83c3.77,0,6.83,3.06,6.83,6.83c0,3.77-3.06,6.83-6.83,6.83
			C930.82,774.4,927.76,771.34,927.76,767.57z"/>
	</g>
	<g>
		<g>
			<path style="fill:#739AF0;" d="M1218.12,733.02c-1.19,0.16-2.39,0.24-3.61,0.22c-6.43-0.07-12.46-2.65-16.95-7.25
				c-9.28-9.5-9.11-24.79,0.39-34.07v0c9.5-9.28,24.78-9.11,34.07,0.4c9.28,9.5,9.11,24.79-0.39,34.07
				C1227.89,730.03,1223.19,732.32,1218.12,733.02z M1200.72,694.76c-7.94,7.75-8.08,20.52-0.33,28.46c3.76,3.85,8.79,6,14.16,6.06
				c5.37,0.06,10.45-1.97,14.3-5.73c7.94-7.75,8.09-20.52,0.33-28.46C1221.43,687.15,1208.66,687,1200.72,694.76L1200.72,694.76z"/>
		</g>
		
			<rect x="1185.23" y="719.65" transform="matrix(0.6989 0.7152 -0.7152 0.6989 883.9954 -627.4965)" style="fill:#739AF0;" width="3.97" height="32.88"/>
		<path style="fill:#739AF0;" d="M1167.29,755.57L1167.29,755.57c-1.37-1.4-1.34-3.64,0.06-5.01l13.85-13.53
			c1.4-1.37,3.64-1.34,5.01,0.06l0,0c1.37,1.4,1.34,3.64-0.06,5.01l-13.85,13.53C1170.9,756.99,1168.65,756.97,1167.29,755.57z"/>
	</g>
	<g>
		<path style="fill:#2A4E96;" d="M2095.08,1673.01L2095.08,1673.01c-3.07,0.02-6.3-2.2-7.2-4.96l-185.11-563.61
			c-0.91-2.76,0.85-5.01,3.92-5.03l0,0c3.07-0.02,6.3,2.2,7.2,4.96l185.11,563.61C2099.91,1670.74,2098.16,1672.99,2095.08,1673.01z
			"/>
		<path style="fill:#2A4E96;" d="M2244.27,1672.15L2244.27,1672.15c-3.07,0.02-6.3-2.2-7.2-4.96l-185.11-563.61
			c-0.91-2.76,0.85-5.01,3.92-5.03l0,0c3.07-0.02,6.3,2.2,7.2,4.96l185.11,563.61C2249.1,1669.88,2247.34,1672.13,2244.27,1672.15z"
			/>
		<path style="fill:#2A4E96;" d="M2083.64,1182.11l-149.81,0.87c-2.89,0.02-5.95-2.09-6.8-4.68l0,0c-0.85-2.59,0.82-4.73,3.7-4.74
			l149.81-0.87c2.89-0.02,5.95,2.09,6.8,4.68l0,0C2088.19,1179.96,2086.53,1182.09,2083.64,1182.11z"/>
		<path style="fill:#2A4E96;" d="M2115.96,1280.52l-149.81,0.87c-2.89,0.02-5.95-2.09-6.8-4.68l0,0c-0.85-2.59,0.81-4.73,3.7-4.75
			l149.81-0.87c2.89-0.02,5.95,2.09,6.8,4.68l0,0C2120.51,1278.36,2118.85,1280.5,2115.96,1280.52z"/>
		<path style="fill:#2A4E96;" d="M2147.08,1375.29l-149.81,0.87c-2.89,0.02-5.95-2.09-6.8-4.68l0,0c-0.85-2.59,0.82-4.73,3.7-4.74
			l149.81-0.87c2.89-0.02,5.95,2.09,6.8,4.68l0,0C2151.64,1373.14,2149.97,1375.27,2147.08,1375.29z"/>
		<path style="fill:#2A4E96;" d="M2182.13,1481.99l-149.81,0.87c-2.89,0.02-5.95-2.09-6.8-4.68l0,0c-0.85-2.59,0.81-4.73,3.7-4.75
			l149.81-0.87c2.89-0.02,5.95,2.09,6.8,4.68l0,0C2186.68,1479.83,2185.02,1481.97,2182.13,1481.99z"/>
		<path style="fill:#2A4E96;" d="M2218.8,1593.66l-149.81,0.87c-2.89,0.02-5.95-2.09-6.8-4.68l0,0c-0.85-2.59,0.82-4.73,3.7-4.74
			l149.81-0.87c2.89-0.02,5.95,2.09,6.8,4.68l0,0C2223.36,1591.51,2221.69,1593.64,2218.8,1593.66z"/>
	</g>
	<g>
		<path style="fill:#2A4E96;" d="M1896.31,846.3L1896.31,846.3c-1.17,0.23-2.32-0.55-2.55-1.72l-2.4-12.38
			c-0.23-1.17,0.55-2.32,1.72-2.55l0,0c1.17-0.23,2.32,0.55,2.55,1.72l2.4,12.38C1898.26,844.93,1897.49,846.08,1896.31,846.3z"/>
		
			<rect x="1890.03" y="808.6" transform="matrix(0.9818 -0.19 0.19 0.9818 -120.936 374.2006)" style="fill:#2A4E96;" width="1.5" height="18.23"/>
		<path style="fill:#FFB27D;" d="M1889.78,707.87c0,0-1.42-12.33-4.4-17.04c-2.99-4.71-14.28-7.74-15-7.05
			c-2.21,2.14,6.53,9.71,6.87,12.5c0.34,2.79-4.44,0.86-2.14,6.3c1.94,4.59,8.33,10.55,8.33,10.55L1889.78,707.87z"/>
		<path style="fill:#E58638;" d="M1884.34,706.5c4.12-3.23,4.99-3.17,4.99-3.17s38.09,33,41.8,35.94
			c3.71,2.94,60.92,19.53,60.92,19.53l9.09,46.51c0,0-77.42-37.39-86.67-45.02c-15.29-12.61-34.57-47.9-34.57-47.9
			S1881.1,709.04,1884.34,706.5z"/>
		<path style="fill:#163560;" d="M1993.28,1153.49c0,0-0.66,15.9-3.71,19.76l-42.46,0.24c0.3-1.64,0.47-5.43,6.35-6.46
			c7.42-1.29,16.13-6.47,20.62-16.27C1978.81,1140.45,1993.28,1153.49,1993.28,1153.49z"/>
		<path style="fill:#163560;" d="M2076.61,1151.2c0,0,2.96,21.12-1.06,21.49c-0.53,0.05-17.11,0.32-24.29,0.44
			c-8.44,0.14-22.31-0.16-22.31-0.16c-1.74,0.07-2.89-1.82-2-3.32c0.97-1.65,2.83-3.41,6.38-4.09c7.39-1.42,19.72-6.86,24.04-16.74
			C2061.91,1138.42,2076.61,1151.2,2076.61,1151.2z"/>
		<path style="fill:#233862;" d="M1971.2,934.79c0,0,11.81,41.31,45.65,113.06c33.84,71.74,35.3,106.32,35.3,106.32
			s5.12,1.81,11.92,1.09c7.35-0.78,12.54-4.06,12.54-4.06s-2.19-85.4-18.18-121.6c-15.98-36.21-19.24-135.28-19.24-135.28
			L1971.2,934.79z"/>
		<path style="fill:#2A4E96;" d="M1952.25,899.25c0,0-0.94,63.97,10.13,142.52c11.07,78.55,5.89,115.08,5.89,115.08
			s2.93,2.14,11.96,2.1c10.56-0.04,15.98-4.41,15.98-4.41s15.84-78.58,11.3-117.89c-4.54-39.32,21.69-134.91,21.69-134.91
			L1952.25,899.25z"/>
		<path style="fill:#FFB27D;" d="M2004.56,749.54l-12.5,9.26l-18.07-3.8c0.25-1.65,1.44-8.48,2.53-14.66
			c0.07-0.36,0.13-0.73,0.19-1.09c0.93-5.26,1.73-9.79,1.73-9.79l16.88-8.41l6.29-3.14c-0.02,0.11-0.49,5.84-0.55,6.68
			C1999.88,739.45,2004.56,749.54,2004.56,749.54z"/>
		<path style="fill:#F99746;" d="M2040.37,907.15c-4.09,18.7-91.59,10.49-90.45-0.92c0.04-0.38,0.27-5.66,0.59-12.78
			c0.66-15.4,1.67-39.47,1.8-41.35c0-0.03,0.01-0.07,0.01-0.1c1.58-15.89,3.09-31.44,3.19-41.59c0.09-8.81,1.3-17.81,2.91-25.98
			c1.49-7.54,3.32-14.39,4.9-19.73c1.12-3.76,3.21-7.07,5.97-9.66c1.97-1.85,4.27-3.34,6.82-4.35c0.7-0.29,1.4-0.53,2.12-0.74
			c10.29-2.99,24.55-6.69,28.41-5.55c10.46,3.08,18.23,21.49,23.73,44.96C2040.67,833.27,2043.05,894.96,2040.37,907.15z"/>
		<path style="fill:#FCA56B;" d="M1999.79,724.85c-3.71,7.09-17.52,13.23-23.28,15.48c0.07-0.36,0.13-0.73,0.19-1.09
			c0.93-5.26,1.73-9.79,1.73-9.79l16.88-8.41C1999.05,720.99,2001.32,721.93,1999.79,724.85z"/>
		<path style="fill:#FFB27D;" d="M1970.24,728.47c0,0,30.45,9.5,36.07-9.55c5.62-19.05,13.34-30.66-5.86-37.53
			c-19.2-6.87-25.14-0.72-28.57,5.18C1968.46,692.48,1962.46,725.51,1970.24,728.47z"/>
		<path style="fill:#163560;" d="M1973.08,684.74c0,0,1.94,22.17,6.53,21.21c4.59-0.96,8.74-1.68,8.07,5.01
			c-0.67,6.68-7.03,14.4,7.1,15.58c14.13,1.18,34.45-35.26,30.56-42.16C2014.14,664.47,1956.89,660.45,1973.08,684.74z"/>
		<path style="fill:#E58638;" d="M1950.51,893.44c0.66-15.4,1.67-39.47,1.8-41.35c0-0.03,0.01-0.07,0.01-0.1l51.69-30.91
			C2004.02,821.08,2006.02,893.23,1950.51,893.44z"/>
		<path style="fill:#FFB27D;" d="M1909.43,828.77c0,0-10.51-7.11-12.5-7.73c-1.99-0.62-8.52-1.29-8.83-0.78
			c-0.3,0.51-1.2,2.09-0.06,2.62s2.56,0.35,2.14,0.72c-0.43,0.37-4.72-1.67-5.71,0.52c-0.99,2.19-1.86,9.69,3.18,11.97
			c5.04,2.27,17.48,0.22,18.37,0.48C1913.62,838.78,1909.43,828.77,1909.43,828.77z"/>
		<path style="fill:#F99746;" d="M1909.33,826.84c0,0,51.27,8.72,55.82,6.5c7.25-3.53-2.81-55.55-2.81-55.55
			s-0.43-11.79,13.34-14.57c11.97-2.42,23.51,6.55,23.51,6.55s10.5,9.4,9.16,19.82c-2.97,23.1-7.6,70.09-23.05,77.29
			c-19.93,9.29-77.6-25.76-77.6-25.76s-1.92-2.35-1.65-6.72C1906.29,830.55,1909.33,826.84,1909.33,826.84z"/>
		<path style="fill:#FFB27D;" d="M1874.88,701.97c0,0-3.28-6.52-3.81-7.75c-0.53-1.22,0.75-0.96,2.02-0.28
			c1.26,0.68,2.99,4.47,4.93,4.01C1879.57,697.6,1874.88,701.97,1874.88,701.97z"/>
	</g>
</g>
</svg>
